<?xml version="1.0" encoding="utf-8"?>
<!-- Generator: Adobe Illustrator 25.0.1, SVG Export Plug-In . SVG Version: 6.00 Build 0)  -->
<svg version="1.1" id="Layer_1" xmlns="http://www.w3.org/2000/svg" xmlns:xlink="http://www.w3.org/1999/xlink" x="0px" y="0px"
	 viewBox="0 0 158.4 106.4" style="enable-background:new 0 0 158.4 106.4;" xml:space="preserve">
<style type="text/css">
	.st0{fill:#FFFFFF;}
	.st1{fill:#7FA7D5;}
	.st2{fill:#1166B0;}
</style>
<path class="st0" d="M53.1,51.6H53c0.1,0.1,0.1,0.2,0.2,0.2C53.1,51.7,53.1,51.6,53.1,51.6"/>
<path class="st1" d="M89.8,22.1c0.2,0,0.4,0,0.5,0.3c0.1,0.1,0.2,0.2,0.4,0.2c0.1,0,0.2-0.1,0.3-0.1c0.2,0.1,0.2,0.4,0.4,0.4l0.3,0
	c0.2,0,0.3,0.1,0.4,0c0.1,0,0.1-0.1,0-0.2c-0.1-0.2-0.3-0.2-0.4-0.3c-0.2-0.1-0.2-0.3-0.3-0.4c0,0,0-0.1,0-0.1c0,0,0-0.1,0.1-0.2
	c0-0.2-0.2-0.1-0.2-0.3c-0.1,0-0.1-0.2-0.2-0.2c0,0,0,0,0,0c0,0,0,0.1,0.1,0.1c0,0.1,0.1,0,0.2,0.1c0.3,0,0.4,0.3,0.7,0.2
	c0.2,0,0.4-0.1,0.6-0.2c0.3-0.1,0.6-0.1,0.8-0.2c0.1,0,0.2,0,0.3,0c0.2,0,0.4,0,0.6-0.1c0.1,0,0.2-0.1,0.3-0.1c0,0,0-0.1,0-0.1
	c0,0,0.1,0,0.1,0.1l0.4-0.1c0.1,0,0.2,0,0.3-0.1c0-0.2-0.2-0.2-0.2-0.3c-0.1-0.1-0.2,0-0.3-0.2c-0.1,0-0.2-0.1-0.4-0.1
	c-0.1-0.1-0.1-0.1-0.2-0.1c-0.2,0-0.3-0.1-0.5-0.1c-0.2,0-0.3,0-0.5,0.1c-0.1,0.1-0.2,0.1-0.3,0.2c-0.3,0.1-0.5,0.2-0.8,0.2
	c-0.2,0-0.4,0.1-0.4,0.3c-0.1,0.1-0.2-0.1-0.4,0c-0.1,0-0.2,0.1-0.2,0.1c0,0.1-0.1,0.1-0.1,0.2c0,0,0-0.1,0-0.1
	c-0.1-0.1-0.2-0.1-0.4-0.1c-0.3,0-0.5,0.2-0.8,0.2c-0.1,0-0.2,0.1-0.3,0.2c-0.1,0.1-0.2,0-0.3,0.1l-0.1,0c-0.1,0-0.2,0.2-0.3,0.2
	v0.5C89.3,22.1,89.6,22.1,89.8,22.1"/>
<path class="st1" d="M92,18.2C92,18.2,91.9,18.3,92,18.2c0,0.1,0,0.2,0.1,0.2c0,0,0.1-0.1,0.1-0.1C92.1,18.3,92,18.2,92,18.2"/>
<path class="st1" d="M94.7,18.9c-0.2-0.1-0.4-0.1-0.5,0c0,0.1,0,0.1,0,0.2c0.1,0.1,0.4,0.2,0.6,0.1c0.1,0,0.1-0.1,0.1-0.2
	C94.9,19,94.8,18.9,94.7,18.9"/>
<path class="st1" d="M96.3,19.6c-0.1,0-0.3,0.1-0.4,0.2c0,0.1,0.1,0.1,0.2,0.2c0.2,0,0.4,0.2,0.6,0c0.1-0.1,0-0.1,0-0.2
	C96.6,19.7,96.4,19.7,96.3,19.6"/>
<path class="st1" d="M95.4,20.2c-0.1,0-0.2,0-0.2,0c0,0.1,0,0.1,0.1,0.2c0.1,0,0.2,0.1,0.4,0.1c0-0.1,0-0.1,0-0.2
	C95.6,20.3,95.5,20.3,95.4,20.2"/>
<path class="st1" d="M104.5,25.8c0.2,0.1,0.3,0.3,0.5,0.2c0.2,0,0.3,0.2,0.4,0.3c0.2,0.1,0.4,0.4,0.6,0.3c0.2-0.1,0-0.3,0.1-0.4
	c0.1-0.2-0.1-0.3-0.1-0.4c0-0.1-0.2-0.2-0.2-0.3c-0.1-0.2-0.3-0.2-0.4-0.3c-0.2-0.1-0.4-0.1-0.6-0.2c0,0-0.1,0.1-0.1,0.2
	c-0.1,0-0.2-0.1-0.3-0.1c-0.1,0.1-0.2,0.1-0.2,0.3C104.2,25.6,104.3,25.7,104.5,25.8L104.5,25.8z"/>
<path class="st1" d="M94.1,26.3c0-0.1,0-0.2-0.1-0.3c0-0.1-0.1-0.1-0.1-0.1c-0.1,0-0.2,0-0.2,0c0,0.1,0,0.2,0.1,0.3
	C93.8,26.4,94,26.4,94.1,26.3"/>
<path class="st1" d="M95.5,26.6c-0.2-0.1-0.3-0.3-0.5-0.4l-0.3-0.1c-0.1-0.1-0.2-0.2-0.4-0.1c0,0.1,0,0.1,0,0.2
	c0.1,0.1,0.1,0.2,0.2,0.3c0,0,0,0.1,0.1,0.1c0.1,0.1,0.3,0.1,0.3,0.3c0.1,0.1,0.2,0.1,0.3,0.2c0.1,0,0.3,0,0.4-0.1
	C95.7,26.8,95.6,26.7,95.5,26.6"/>
<path class="st1" d="M93.3,26.4c-0.1-0.1-0.1-0.2-0.3-0.2c0,0-0.1,0.1-0.1,0.1c0,0.2,0.2,0.2,0.3,0.3c0.2,0,0.2,0.3,0.4,0.3
	c0,0,0.1-0.1,0.1-0.1C93.6,26.7,93.5,26.5,93.3,26.4"/>
<path class="st1" d="M93.9,27.2c0-0.1-0.2-0.1-0.2,0c0,0,0,0.1,0,0.1c0,0,0.1,0,0.1,0C93.9,27.3,93.9,27.3,93.9,27.2"/>
<path class="st1" d="M85,27.7c0-0.1,0.2-0.2,0.1-0.3c-0.1-0.1-0.1-0.1-0.2-0.1c-0.1,0-0.2-0.1-0.2,0c0,0.1,0,0.2,0.1,0.3
	C84.8,27.7,84.9,27.8,85,27.7"/>
<path class="st1" d="M84.4,27.6c0.1,0,0.1-0.1,0.1-0.2c0-0.1-0.1-0.1-0.2-0.1c0,0-0.1,0.1-0.1,0.1C84.3,27.6,84.3,27.6,84.4,27.6"/>
<path class="st1" d="M93.9,27.4c-0.1,0-0.1,0.1-0.1,0.1c0,0.1-0.1,0.2,0,0.3C93.9,28,94,28,94.1,28c0.1,0,0.2,0,0.2-0.1
	c0-0.1-0.1-0.2-0.1-0.3C94.1,27.5,94.1,27.4,93.9,27.4"/>
<path class="st1" d="M85.6,27.9c0.1,0,0.1-0.1,0.1-0.2l0-0.1c-0.1,0-0.2-0.1-0.2-0.1c-0.1,0.1-0.2,0.2-0.1,0.3
	C85.3,28,85.5,28,85.6,27.9"/>
<path class="st1" d="M95.2,28.7C95.2,28.8,95.2,28.8,95.2,28.7c-0.1,0.1-0.1,0.1-0.1,0.1c0.1,0,0.1,0.1,0.2,0c0-0.1,0-0.1,0-0.2
	C95.3,28.7,95.3,28.7,95.2,28.7"/>
<path class="st1" d="M95.9,29.4C95.9,29.4,95.8,29.4,95.9,29.4c-0.1-0.2,0-0.2-0.1-0.3c-0.1,0-0.2-0.1-0.3-0.1c0,0-0.1,0-0.1,0.1
	c0,0.1,0,0.2,0.1,0.3c0.1,0.1,0.2,0.1,0.3,0.1C95.9,29.5,95.9,29.5,95.9,29.4"/>
<path class="st1" d="M96.5,29.8C96.5,29.8,96.6,29.8,96.5,29.8c0.1-0.1,0.1-0.2,0.1-0.2c-0.1-0.1-0.2-0.2-0.3-0.1c0,0-0.1,0.1,0,0.1
	L96.5,29.8z"/>
<path class="st1" d="M96.3,29.9c-0.1,0-0.1-0.1-0.2-0.1c-0.1,0-0.1-0.1-0.1-0.2c-0.1-0.1-0.1,0.1-0.1,0c-0.1,0-0.1,0.1-0.2,0.1
	c0,0.1,0,0.1,0,0.2c0.1,0.2,0.3,0.3,0.4,0.3c0.1,0,0.2-0.1,0.2-0.2C96.4,30,96.3,30,96.3,29.9"/>
<path class="st1" d="M76.2,30.1c0-0.1,0.1-0.2,0-0.3c0,0-0.1-0.1-0.2-0.1c-0.1,0-0.2,0.1-0.3,0.2c0,0,0,0.1,0,0.1
	C75.9,30.1,76.1,30.2,76.2,30.1"/>
<path class="st1" d="M96.7,30.1c-0.1-0.1-0.2,0.1-0.2,0.1c-0.1,0.1-0.1,0.1-0.1,0.2c0.1,0.1,0.2,0.2,0.4,0.2c0.1,0,0.1-0.2,0.2-0.3
	C96.9,30.2,96.8,30.2,96.7,30.1"/>
<path class="st1" d="M97.4,30.6C97.4,30.5,97.4,30.5,97.4,30.6c-0.1-0.1-0.1-0.2-0.2-0.2c0,0-0.1,0-0.1,0c0,0.1,0,0.3,0,0.4
	c0.1,0.1,0.1,0.1,0.2,0.1c0.1,0,0.1-0.1,0.2-0.2C97.5,30.6,97.4,30.7,97.4,30.6"/>
<path class="st1" d="M98.1,31.2c-0.1-0.1-0.1-0.2-0.2-0.3c-0.1-0.2-0.2-0.1-0.3-0.2c-0.1,0.1-0.1,0.1-0.1,0.2c0,0.1,0,0.2,0,0.2
	c0,0.1,0.1,0.1,0.1,0.2c0,0.1,0.1,0.1,0.2,0.1c0.1,0,0.2,0,0.2-0.1C98.2,31.4,98.1,31.3,98.1,31.2"/>
<path class="st1" d="M89.3,26.7c0.2,0,0.4,0,0.5-0.2c0-0.1,0-0.2-0.1-0.2c0,0-0.1,0-0.1-0.1c-0.1,0-0.3,0-0.4-0.1l0,0v0.8l0,0
	L89.3,26.7z"/>
<path class="st1" d="M105.4,35.3c0.2,0,0.3,0.3,0.4,0.5c0.1,0.2,0.4,0.1,0.5,0.3c0,0,0.1,0.1,0.1,0.1c-0.1,0-0.2,0.1-0.2,0
	c0,0,0,0.1,0,0.1c0.1,0.1,0.2,0.2,0.4,0.2c0.1,0,0.1,0,0.1-0.1c0-0.1-0.1-0.1-0.1-0.1c0,0-0.1,0-0.1,0c0-0.1,0.1,0,0.1,0
	c0.2,0,0.4,0.1,0.6,0c0.1,0.1,0.1,0.2,0.1,0.3c0,0.3,0.3,0.4,0.4,0.7c0.2,0.2,0.4,0.2,0.7,0.3c0.2,0.1,0.4,0.1,0.5,0.3
	c0.1,0.1,0.3,0.2,0.4,0.3c0.1,0,0.1,0.1,0.2,0.1c0.1,0.1,0.3-0.1,0.4,0c0.2,0.1,0.3,0.2,0.4,0.3c0.1,0.1,0.1,0.2,0.2,0.3
	c0,0.1,0.1,0.1,0.1,0.1c0.2,0.2,0.3,0.4,0.5,0.6c0.1,0.1,0.1,0.2,0.2,0.3c0.1,0.2,0.3,0.3,0.4,0.4c0.1,0,0.1,0.1,0.2,0.2
	c0,0.1,0,0.3,0.1,0.4c0.2,0.1,0.4,0,0.6,0c0.1,0,0.2-0.2,0.4-0.2c0.1,0,0.3-0.1,0.4-0.1l0.2-0.2c-0.1-0.3-0.2-0.5-0.4-0.8l0.9-0.5
	c0.1,0.2,0.1,0.3,0.2,0.5c0.1-0.1,0.1-0.1,0.2-0.1c0.1-0.1,0.1-0.2,0.1-0.4c0-0.2-0.1-0.4-0.2-0.6c0-0.1,0-0.1-0.1-0.1
	c0-0.2-0.2-0.3-0.2-0.5c0-0.2-0.2-0.2-0.3-0.4c-0.1-0.1-0.2-0.2-0.3-0.3c-0.1-0.2-0.3-0.3-0.3-0.6c-0.1-0.2-0.3-0.3-0.3-0.5
	c-0.1-0.1-0.1-0.3-0.3-0.3c-0.2-0.2-0.1-0.4-0.3-0.5c-0.2-0.1-0.4-0.2-0.5-0.4c-0.1-0.1-0.1-0.2-0.2-0.2c-0.2-0.1-0.3-0.2-0.5-0.4
	c-0.1-0.3-0.2-0.5-0.4-0.7c-0.1-0.2-0.3-0.2-0.5-0.4c-0.2-0.2-0.4-0.3-0.6-0.5c-0.2-0.3-0.3-0.6-0.6-0.8l0-0.3l-3.7,3.6L105.4,35.3z
	"/>
<path class="st1" d="M100.3,27.3c0,0.1-0.1,0-0.2,0c-0.1,0-0.1,0.1-0.1,0.2c0,0.1,0.1,0.2,0.1,0.3c0,0,0.1,0,0.1,0
	c0,0,0-0.1,0.1-0.2c0,0,0.1,0.1,0.1,0.1c0.1,0.1,0.2,0.1,0.3,0.2c0.1,0.2,0.3,0.3,0.4,0.3c0.2,0.1,0.1,0.4,0.3,0.5
	c0,0.2,0.1,0.4,0.1,0.6c0,0.2,0.1,0.4,0.1,0.5c0.1,0.2,0.3,0.2,0.4,0.3c0,0.1,0.2,0.1,0.2,0.2c0.1,0,0,0.1,0,0.2c0,0.2,0,0.3,0,0.5
	c-0.1,0.1-0.1,0.2-0.1,0.3c0.1,0.1,0.1,0.3,0.1,0.4c0.1,0,0.2,0.2,0.2,0.3c0,0.1,0,0.1,0,0.2c0,0.2-0.1,0.4,0.1,0.6
	c0,0.1,0.1,0.1,0.2,0.1c0.2-0.1,0.5-0.1,0.6-0.2l0.1-0.1c0.2-0.1,0.4-0.3,0.7-0.1c0.1,0.1,0.2,0.1,0.3,0.3c0.3,0.2,0.5,0.5,0.6,0.8
	c0.1,0.1,0.1,0.2,0.1,0.3l0,0.1l3.6-3.6l0-0.1c0,0,0,0-0.1,0c0-0.1,0-0.1-0.1-0.2c-0.1-0.1-0.2-0.3-0.3-0.3c-0.2-0.1-0.4,0-0.5-0.2
	c0-0.1-0.1-0.1-0.1-0.2c0-0.2,0-0.3-0.1-0.5c0-0.1-0.1-0.2-0.1-0.3c-0.2-0.2-0.5-0.4-0.6-0.7c-0.1-0.2-0.3-0.3-0.4-0.5
	c-0.2-0.1-0.4-0.3-0.7-0.3c-0.2,0-0.3-0.1-0.4-0.2c-0.1-0.1-0.3-0.3-0.4-0.5c-0.1-0.1-0.3-0.2-0.5-0.1c-0.2,0.1-0.4,0-0.5-0.1
	c-0.3-0.1-0.7-0.4-1.1-0.2c-0.2,0.2-0.6,0.1-0.8,0.3c-0.1,0.1-0.2,0-0.3,0.1c0,0,0,0,0,0c0.2,0.1,0.4,0.2,0.6,0.3l-0.5,0.9
	c-0.4-0.2-0.9-0.5-1.3-0.7l-0.2,0.1C100.6,27.1,100.3,27.2,100.3,27.3 M107.9,30.4c0.1-0.1,0.3-0.1,0.4-0.1c0,0,0.1,0,0.1,0.1
	c0,0,0,0-0.1,0.1c-0.2,0.1-0.4,0.2-0.6,0.2C107.7,30.5,107.8,30.5,107.9,30.4"/>
<path class="st1" d="M81.8,36.7c0.1,0,0.2,0.1,0.3,0c0-0.1,0.1-0.1,0.2-0.2c0.1,0,0.1,0.1,0.1,0.1c0.1,0,0.2,0,0.3,0
	c0,0,0.1-0.1,0.1-0.2c-0.1,0-0.1-0.1-0.2-0.1c-0.1,0-0.1,0-0.2,0c0,0,0,0.1-0.1,0c-0.1,0-0.1-0.1-0.1-0.1c-0.1-0.1-0.2-0.1-0.4-0.1
	c-0.1,0.1-0.3,0.2-0.3,0.3c0,0.1,0.1,0.1,0.1,0.2C81.7,36.7,81.7,36.7,81.8,36.7"/>
<path class="st1" d="M105.2,36.3c0,0.1,0.1,0.1,0.1,0.2c0.1,0,0.3,0.1,0.3-0.1c0-0.1,0-0.1,0-0.2C105.4,36.2,105.3,36.2,105.2,36.3"
	/>
<path class="st1" d="M100.5,42.3c-0.1-0.2-0.4,0-0.5-0.3l-0.1,0.3c0,0,0.1,0.1,0.1,0.1l0.4,0.1C100.3,42.4,100.5,42.4,100.5,42.3"/>
<path class="st1" d="M107.8,38.4c0.1-0.1-0.1-0.1-0.2-0.2c-0.1-0.1-0.1-0.3-0.2-0.4c-0.1-0.1-0.2-0.2-0.3-0.3c-0.1,0-0.2,0-0.2,0
	c-0.1,0-0.1,0.1-0.1,0.2c0,0.2,0.2,0.4,0.4,0.6c0.1,0,0.1,0.1,0.2,0.1c0.1,0.1,0.2,0.2,0.3,0.1C107.7,38.6,107.8,38.5,107.8,38.4"/>
<path class="st1" d="M108,38.5C108,38.5,108,38.5,108,38.5C108,38.5,108,38.5,108,38.5C108,38.5,108,38.5,108,38.5"/>
<path class="st1" d="M108.1,38.9c0.1,0,0.2,0,0.2-0.1c0-0.1,0-0.1,0-0.2c-0.1-0.1-0.2-0.1-0.2,0c0,0.1-0.1,0.1-0.1,0.2
	C107.9,38.8,108,38.8,108.1,38.9"/>
<path class="st1" d="M108.3,39.6c0,0,0.1-0.1,0.1-0.1c0.1,0.1,0,0.3,0.2,0.4c0.1,0,0.1,0,0.2-0.1c0-0.1,0-0.2,0-0.3
	c0-0.1-0.1,0-0.1-0.1c0,0-0.1,0-0.1,0c-0.1,0-0.1-0.1-0.1-0.1l-0.4-0.4c-0.1-0.1-0.2,0-0.3,0c0,0.1,0,0.1,0,0.2
	c0.1,0.1,0.2,0.2,0.3,0.2c0.1,0.1,0.2,0.1,0.2,0.2c0,0-0.1,0-0.1,0c-0.1,0-0.1,0.1-0.1,0.1c0,0.1,0.1,0.2,0.2,0.2
	c0.1,0,0.2,0.1,0.3,0c0-0.1,0-0.1,0-0.1C108.5,39.8,108.3,39.7,108.3,39.6"/>
<path class="st1" d="M104.5,39.4c0,0,0-0.1,0-0.1c-0.1,0-0.1-0.1-0.2-0.1c0,0-0.1,0.1-0.1,0.2c0,0.1,0.1,0.1,0.2,0.1
	C104.4,39.5,104.5,39.5,104.5,39.4"/>
<path class="st1" d="M105,39.8c0,0,0-0.1,0-0.1c0-0.1-0.1-0.1-0.2-0.1c-0.1,0-0.1,0.1-0.2,0.1c0,0.1,0,0.1,0.1,0.1
	C104.9,39.9,105,39.8,105,39.8"/>
<path class="st1" d="M104.1,40.6c0.2,0,0.2,0.2,0.3,0.4c0,0.1,0,0.2,0.1,0.2c0.2,0.1,0.4,0.1,0.5-0.1c0.1-0.2-0.1-0.3-0.2-0.5
	c0-0.1,0.1-0.2,0.1-0.3c0-0.2-0.1-0.3-0.2-0.5c-0.2,0-0.3,0-0.5,0c-0.1,0-0.2,0.1-0.3,0.2c0,0.1-0.1,0.1-0.1,0.2
	c-0.1,0.1,0,0.2,0,0.2C103.8,40.5,103.9,40.6,104.1,40.6"/>
<path class="st1" d="M109.1,40.9c0.1-0.2-0.1-0.3-0.1-0.4c0-0.1-0.1-0.1-0.1-0.2c-0.1-0.1-0.2,0-0.3,0c0,0-0.1,0.1-0.1,0.1
	c0,0.1,0,0.2,0,0.3c0,0.1,0.1,0.1,0.1,0.2c0.1,0,0.1,0.2,0.2,0.2C108.9,41.1,109,40.9,109.1,40.9"/>
<path class="st1" d="M103.3,41.2c0.3,0.2,0.2-0.2,0.4-0.3l0.1,0c0,0.1,0,0.2,0,0.3c0.1,0,0.2-0.2,0.3-0.1c0.1,0,0.1-0.1,0.1-0.2
	c-0.1-0.1-0.1-0.1-0.2-0.2c-0.1,0-0.2,0-0.2,0c0,0,0-0.1,0-0.1c0,0-0.1,0-0.1,0c0,0-0.1,0-0.1,0.1c-0.2,0-0.3,0.1-0.4,0.2
	c0,0,0,0.1,0,0.2C103.2,41.1,103.2,41.2,103.3,41.2"/>
<path class="st1" d="M105.5,41.3c0-0.1,0-0.1,0-0.1c-0.1,0-0.1-0.1-0.2-0.1c0,0-0.1,0-0.1,0.1c0,0.1,0,0.1,0.1,0.1
	C105.3,41.4,105.4,41.4,105.5,41.3"/>
<path class="st1" d="M109,41.5c0.1,0.1,0.2,0,0.3,0c0-0.1,0.1-0.1,0.1-0.2l-0.1-0.1c-0.1,0-0.2,0.1-0.3,0.2
	C108.9,41.4,108.9,41.4,109,41.5"/>
<path class="st1" d="M104.2,41.2l-0.3,0.3c-0.1,0.1-0.1,0.1-0.2,0.1c0,0.1,0,0.1,0.1,0.2c0.1,0,0.2-0.1,0.3,0c0.1,0,0.2-0.2,0.3-0.3
	c0-0.1,0.1-0.2,0-0.3C104.3,41.2,104.3,41.2,104.2,41.2"/>
<path class="st1" d="M105.9,41.3c0-0.1-0.1-0.1-0.1-0.1c-0.1,0-0.1,0-0.2,0.1c0,0,0.1,0.1,0.1,0.1C105.8,41.4,105.9,41.4,105.9,41.3
	"/>
<path class="st1" d="M102.9,43c0.1,0,0.2-0.1,0.2-0.2c0.1,0,0.1,0.1,0.2,0.1c0.1,0.1,0.3,0,0.4,0c0.1,0,0.3,0.1,0.4,0
	c0,0,0-0.1,0-0.1c0,0-0.1,0-0.1,0c-0.1-0.1-0.2-0.1-0.2-0.2c0-0.1,0-0.1,0.1-0.2c0.1,0.1,0.2,0,0.4,0l0.1-0.1c0-0.1,0.1-0.2,0-0.3
	c-0.1,0-0.2,0-0.3,0c-0.1,0-0.1-0.1-0.1-0.2c-0.1,0-0.1,0-0.2-0.1c0-0.1-0.2-0.3-0.1-0.4c0,0,0,0-0.1,0c0,0-0.1,0-0.1,0.1
	c0,0.1-0.1,0.2-0.1,0.3c0,0.2,0.1,0.3,0,0.5c-0.2,0.1-0.6,0.1-0.7,0.4c0,0.1,0,0.3,0.1,0.4C102.7,43,102.8,43.1,102.9,43"/>
<path class="st1" d="M109,41.6c0,0.1,0,0.2,0,0.2c0.1,0.1,0.2,0,0.3,0c0.1-0.1,0.2-0.1,0.2-0.2c0-0.1-0.1-0.1-0.2-0.1
	C109.2,41.7,109.1,41.6,109,41.6"/>
<path class="st1" d="M110.3,44.9c0-0.2-0.1-0.3,0-0.5c0-0.2-0.2-0.4-0.2-0.6c-0.1-0.3-0.1-0.6-0.2-0.9c-0.1-0.1-0.1-0.3-0.2-0.4
	c0-0.1-0.1-0.2-0.1-0.3c-0.1-0.1-0.2-0.1-0.3-0.1c0,0,0,0,0,0.1c0.1,0.1,0,0.3,0,0.4c-0.1,0.1,0,0.3-0.2,0.3c-0.1,0,0-0.1-0.1-0.2
	c0.1-0.2-0.1-0.3,0.1-0.5c0-0.1-0.1-0.1-0.1-0.1c-0.1,0-0.2,0-0.2,0.1c-0.1,0.1,0,0.3,0,0.4c0.1,0.1,0.1,0.3,0.2,0.4
	c0.1,0.1,0.2,0.2,0.3,0.4c0.2,0.3,0.3,0.7,0.3,1.1c-0.1,0.1,0,0.2,0,0.3c0,0.1,0.1,0.2,0.1,0.2c0.1,0.1,0.1,0.2,0.2,0.2
	c0.1-0.1,0.3,0,0.3-0.2L110.3,44.9z"/>
<path class="st1" d="M94.1,42.6c0.1,0,0.2,0,0.3,0c0.1,0,0.1-0.1,0.1-0.2c0-0.1,0-0.2,0-0.3c-0.1-0.1-0.1,0-0.2,0
	c-0.1,0.2-0.3,0-0.4,0.2c0,0,0,0.1,0,0.1C94,42.5,94,42.6,94.1,42.6"/>
<path class="st1" d="M94.8,43.1c0.1,0.1,0.2,0.1,0.3,0.1c0.1,0,0.2-0.1,0.3-0.1c0.1,0,0.2-0.1,0.2,0c0.1-0.1,0.3-0.2,0.3-0.3
	c0,0,0-0.1,0-0.1c-0.1,0-0.1-0.1-0.2-0.2c-0.1-0.1-0.2,0.1-0.3,0.1c-0.1,0-0.1-0.2-0.1-0.2c0-0.1-0.2-0.1-0.3-0.1
	c-0.1,0-0.1-0.1-0.2-0.1c0,0-0.1,0-0.1,0.1c-0.1,0.1,0,0.3,0,0.4C94.8,42.8,94.8,43,94.8,43.1"/>
<path class="st1" d="M92.9,42.7c0,0,0.1-0.1,0.1-0.1c0-0.1,0.1,0,0.2,0c0.1,0.1,0.3-0.1,0.4-0.1c0.1,0.1,0.1,0.1,0.2,0.1
	c0.1,0,0.1-0.1,0.1-0.2c0,0,0-0.1-0.1-0.1c-0.2-0.1-0.3,0-0.5,0.1c-0.2,0-0.3,0.1-0.4,0c0,0.1-0.1,0-0.2,0.1c0,0.1,0.1,0.1,0.1,0.2
	H92.9z"/>
<path class="st1" d="M87.7,42.3c-0.1,0-0.2,0-0.3,0c-0.1,0.1-0.1,0.1-0.2,0.2c0,0.1,0,0.1,0.1,0.1c0.1,0,0.2,0,0.3-0.1
	c0.1,0,0.1-0.1,0.2-0.1c0,0.2,0.2,0,0.3,0.2l0,0v-0.2l-0.1,0C87.9,42.2,87.8,42.4,87.7,42.3"/>
<path class="st1" d="M98.4,42.8c0.1,0.2,0.3,0.1,0.5,0.1l0-0.1c-0.1-0.2-0.3-0.3-0.4-0.5l-0.1,0.2C98.3,42.7,98.4,42.7,98.4,42.8"/>
<path class="st1" d="M99.1,43.4c0.1,0.1,0.2,0.2,0.3,0.2c0,0,0.1,0,0.1,0c-0.1-0.1-0.2-0.3-0.3-0.4l-0.1,0
	C99.1,43.3,99,43.3,99.1,43.4"/>
<path class="st1" d="M104.7,42.4c-0.1,0-0.1-0.1-0.2,0c0,0,0,0.1,0,0.1c0.1,0.1,0.3,0,0.4,0.1c0.1,0,0.2,0.1,0.3,0
	c0-0.1,0.1-0.2,0-0.2c0-0.1-0.1,0-0.2,0c0,0.1-0.1,0.1-0.1,0.1C104.9,42.4,104.8,42.5,104.7,42.4"/>
<path class="st1" d="M92.6,42.8c0,0,0-0.1,0-0.2l-0.1-0.1c-0.1-0.1-0.1,0-0.1,0.1c0,0.1-0.1,0.1,0,0.2
	C92.5,42.8,92.6,42.8,92.6,42.8"/>
<path class="st1" d="M89.5,42.5c0,0-0.1,0.1,0,0.2c0,0,0.1,0.1,0.2,0.1c0.1,0,0.1-0.1,0.1-0.2C89.7,42.5,89.6,42.5,89.5,42.5"/>
<path class="st1" d="M87.2,42.7c0,0,0-0.1,0-0.1c0,0,0,0,0,0c-0.1,0.1-0.2,0.1-0.3,0.1c0,0-0.1,0-0.1,0c0,0-0.1,0.1-0.1,0.1
	c0.1,0.1,0.2,0.1,0.3,0.1C87.1,42.9,87.1,42.8,87.2,42.7"/>
<path class="st1" d="M102.3,42.6C102.3,42.6,102.3,42.6,102.3,42.6C102.2,42.6,102.2,42.7,102.3,42.6
	C102.3,42.7,102.3,42.6,102.3,42.6"/>
<path class="st1" d="M101.4,43c0,0,0-0.1,0-0.1c-0.1-0.1-0.1-0.1-0.2-0.1c-0.1,0-0.1,0.1-0.1,0.2c0,0,0.1,0.1,0.1,0.1
	C101.3,43,101.4,43.1,101.4,43"/>
<path class="st1" d="M86.7,43.2c0.1,0,0.1-0.1,0.2-0.2c0,0,0-0.1-0.1-0.1c0-0.1-0.1-0.1-0.2-0.1c-0.1,0-0.1,0.1-0.1,0.1
	c0,0.1,0,0.1,0,0.2C86.5,43.2,86.6,43.2,86.7,43.2"/>
<path class="st1" d="M90.2,42.9c0,0-0.1,0.1-0.1,0.2c0,0,0.1,0.1,0.1,0.1c0,0,0.1,0,0.1,0c0,0,0-0.1,0-0.1
	C90.4,42.9,90.3,42.9,90.2,42.9"/>
<path class="st1" d="M101.3,43.4c0,0.1,0,0.1,0.1,0.2c0.2,0,0.4,0.1,0.6,0.1c0.1,0,0.2-0.1,0.2-0.2c0,0,0.1,0,0.1-0.1
	c0-0.1,0-0.2,0-0.2c-0.1-0.1-0.3-0.1-0.5-0.1c-0.1,0.1-0.2,0.2-0.4,0.2C101.3,43.3,101.3,43.3,101.3,43.4"/>
<path class="st1" d="M93.5,44.5c0,0.1-0.1,0.1,0,0.2c0,0.1,0.1,0.1,0.2,0.1c0-0.1,0.1-0.1,0.1-0.2c0.1-0.2,0.3-0.4,0.4-0.5
	c0.1-0.1,0.3-0.2,0.4-0.2c0.1,0,0.1-0.1,0.1-0.2c0-0.1,0.1-0.1,0.1-0.2c0,0-0.1-0.1-0.1-0.1c-0.1,0-0.2-0.1-0.2-0.1
	c-0.1,0-0.2,0.2-0.3,0.2c-0.1,0.2-0.4,0.1-0.4,0.4c0,0.2-0.2,0.4-0.3,0.6C93.6,44.4,93.6,44.4,93.5,44.5"/>
<path class="st1" d="M86.2,43.5c0,0,0.1,0.1,0.1,0c0.1,0,0.1-0.1,0.1-0.2c0-0.1-0.1-0.1-0.2-0.2c0,0.1-0.1,0-0.2,0.1
	C86.1,43.4,86.2,43.4,86.2,43.5"/>
<path class="st1" d="M90.7,43.3c0,0-0.1-0.1-0.1-0.1c0,0-0.1,0-0.1,0.1c0,0,0,0.1,0,0.1c0.1,0,0.1,0,0.2,0
	C90.7,43.3,90.7,43.3,90.7,43.3"/>
<path class="st1" d="M85.1,44.7c0,0,0.1-0.1,0.1-0.2c0.1-0.1,0-0.2,0-0.3c0-0.1-0.1,0-0.1-0.1c-0.2,0.1-0.2,0.2-0.2,0.4
	c0,0,0,0.1,0.1,0.1C85,44.7,85.1,44.7,85.1,44.7"/>
<path class="st1" d="M110.3,46.4C110.3,46.4,110.3,46.4,110.3,46.4c-0.1,0.2-0.1,0.3,0,0.3c0,0,0.1,0,0.1,0c0.1,0,0.1-0.1,0.1-0.2
	C110.4,46.5,110.4,46.3,110.3,46.4"/>
<path class="st1" d="M110,47.3c0,0.1-0.1,0.1-0.1,0.2c0,0,0.1,0,0.1,0c0,0,0.1,0,0.1-0.1c0-0.1,0-0.1,0-0.2
	C110.2,47.3,110.1,47.2,110,47.3"/>
<path class="st1" d="M91,48.4C91,48.4,91,48.4,91,48.4c-0.1-0.1-0.1-0.3-0.2-0.2c0,0,0,0.1,0,0.1C90.8,48.4,90.9,48.5,91,48.4"/>
<path class="st1" d="M90.4,48.6c0,0,0.1-0.1,0.1-0.1c0,0,0.1-0.1,0-0.1l-0.1-0.1c-0.1,0-0.1,0-0.2,0.1c0,0.1,0,0.1,0,0.2
	C90.3,48.6,90.4,48.6,90.4,48.6"/>
<path class="st1" d="M90.9,48.8c0-0.1,0.1-0.1,0-0.2c-0.1,0-0.2-0.1-0.3,0c0,0.1-0.1,0.1,0,0.2c0,0,0,0,0.1,0.1
	C90.8,48.9,90.9,48.9,90.9,48.8"/>
<path class="st1" d="M85.3,49.5c0.1,0,0.2-0.1,0.2-0.1c0.1-0.1,0-0.2,0-0.3c-0.1-0.1-0.3-0.2-0.5-0.2C85,48.9,85,49,84.9,49
	c0,0,0,0.1,0,0.1C85.1,49.1,85.1,49.4,85.3,49.5"/>
<path class="st1" d="M86.2,50.1c0-0.1-0.1-0.1-0.2-0.1c-0.1-0.1,0.1-0.2,0-0.4c-0.1-0.1-0.2-0.2-0.3-0.1c-0.1,0-0.1,0.1-0.2,0.2
	c0,0.1,0.1,0.1,0.1,0.2c0,0,0,0.1,0,0.1c0.1,0,0,0.1,0.1,0.1c0,0,0,0.1-0.1,0.1c-0.1,0-0.1-0.1-0.1-0.2c-0.1-0.1,0-0.2-0.1-0.3
	c0,0-0.1,0-0.1,0c-0.1,0.1-0.2,0.2-0.2,0.3c0.1,0.1,0.1,0.2,0.2,0.2c0.2,0,0.5,0,0.7,0C86.1,50.1,86.3,50.2,86.2,50.1"/>
<path class="st1" d="M108.2,49.7c-0.1,0-0.3,0.1-0.3,0.2c0,0,0,0.1,0.1,0.1c0.1,0,0.2,0,0.3,0c0.1,0,0.1-0.1,0.1-0.2
	C108.3,49.8,108.3,49.7,108.2,49.7"/>
<path class="st1" d="M84.8,50.5c0.1,0,0-0.1,0-0.1c0-0.1,0.1-0.1,0-0.2c0,0-0.1-0.1-0.1,0c-0.1,0.1-0.1,0.2-0.2,0.3
	c0,0.1,0,0.1,0.1,0.1C84.7,50.5,84.8,50.5,84.8,50.5"/>
<path class="st1" d="M106.3,50.2c-0.1,0,0,0.1,0,0.1c0,0.1,0.1,0.1,0.1,0.1c0,0,0.1,0,0.1-0.1l0-0.2
	C106.4,50.1,106.4,50.2,106.3,50.2"/>
<path class="st1" d="M106.6,50.2c-0.1,0.1,0,0.1,0,0.2c0,0,0,0.1,0.1,0.1c0.1,0,0-0.1,0-0.2C106.7,50.2,106.6,50.2,106.6,50.2"/>
<path class="st1" d="M107.4,50.3c-0.1,0-0.1,0-0.2,0.1c0,0-0.1-0.1-0.1-0.1c0,0-0.2,0-0.1,0.1c0,0,0,0.1,0.1,0.1c0,0,0.1,0,0.1,0
	c0.1-0.2,0.2,0.1,0.3,0c0.1,0,0-0.1,0.1-0.2C107.5,50.3,107.4,50.3,107.4,50.3"/>
<path class="st1" d="M85.2,50.4c-0.1,0-0.2,0-0.3,0.1c0,0.1,0.1,0.1,0.2,0.2c0.1,0,0.2,0.2,0.4,0.1c0-0.1,0.1-0.2,0-0.3
	C85.5,50.4,85.3,50.5,85.2,50.4"/>
<path class="st1" d="M86.7,51.1c-0.1-0.1-0.2,0-0.3-0.1c-0.1-0.1,0-0.1,0-0.2c-0.1-0.1-0.2-0.2-0.2-0.3l0-0.1c-0.1,0-0.3,0-0.4,0.1
	c0,0.1,0,0.2,0,0.3c0.1,0.1,0.3,0.1,0.5,0.1c0,0,0.1,0,0,0.1c0,0.1-0.1,0.2-0.1,0.3c0,0.1-0.1,0.1-0.2,0.1c-0.1,0.1-0.2,0.1-0.2,0.3
	c0,0.1-0.1,0.2,0,0.3c0.2,0,0.3-0.1,0.5-0.1c0.1-0.1,0.2-0.1,0.3-0.1c0.1-0.1,0.3,0,0.4,0c0,0,0.1-0.1,0.1-0.1
	c0.1-0.2-0.1-0.3-0.1-0.5C86.9,51.1,86.8,51.1,86.7,51.1"/>
<path class="st1" d="M90.5,50.9c0,0,0,0.1,0.1,0.1c0,0,0.1,0,0.1,0c0-0.1,0-0.1,0-0.2c0-0.1-0.1,0-0.1,0
	C90.5,50.8,90.5,50.9,90.5,50.9"/>
<path class="st1" d="M90.9,50.8c0,0-0.1,0.1-0.1,0.1c0,0.1,0.1,0.1,0.2,0.1c0,0,0-0.1,0-0.1c0.1,0,0.1,0.1,0.2,0.1
	c0.1,0,0.1-0.1,0.1-0.1c0-0.2-0.2-0.1-0.3,0C90.9,50.9,90.9,50.8,90.9,50.8"/>
<path class="st1" d="M85,51c0,0.1-0.1,0.1-0.1,0.2c-0.1,0.1-0.1,0.3-0.2,0.2c0,0.1,0,0.1,0,0.2c0.1,0.1,0.3,0.2,0.4,0.4h0.1
	c0-0.1,0-0.2,0-0.2c-0.1-0.2,0-0.4,0-0.6C85.1,51.1,85.1,51,85,51"/>
<path class="st1" d="M91.1,52.2c0,0-0.1,0-0.1,0.1c0,0.1-0.1,0.3,0,0.4c-0.1,0.1,0,0.2,0,0.3c0.1,0.1,0.1,0.2,0.2,0.2
	c0.1-0.1,0.2-0.1,0.2-0.2c-0.1-0.1-0.1-0.2-0.1-0.3C91.2,52.4,91.2,52.2,91.1,52.2"/>
<path class="st1" d="M91.3,53.5c0.2,0.1,0.3,0.2,0.5,0.2c0.1,0,0.1,0,0.2-0.1c0-0.1,0.1-0.2,0-0.3c-0.1-0.1-0.2-0.2-0.3-0.2
	c-0.1-0.1-0.2-0.1-0.3-0.1c-0.1,0-0.1,0.1-0.2,0.2C91.2,53.3,91.2,53.4,91.3,53.5"/>
<path class="st1" d="M89.5,54.2c0.1-0.1,0.1-0.2,0.1-0.3c0-0.1-0.1-0.2-0.2-0.2c-0.1-0.1-0.1-0.2,0-0.3c0.1,0,0.2,0,0.3,0
	c0-0.1,0-0.1-0.1-0.2c-0.1,0-0.2-0.1-0.2-0.1c-0.1,0.1-0.1,0.1-0.1,0.3c0,0.1-0.1,0-0.1,0.1c-0.1,0-0.1,0.1-0.1,0.2
	c0,0.2,0.1,0.4,0.2,0.6C89.3,54.2,89.4,54.2,89.5,54.2"/>
<path class="st1" d="M107,54.6c0.1,0.1,0.3,0.2,0.4,0.2c0.3-0.1,0.5,0,0.7-0.2c0.1-0.2-0.1-0.3-0.1-0.5c-0.1-0.1-0.3-0.2-0.4-0.1
	c-0.1,0-0.3,0-0.4,0.1c-0.1,0-0.1,0.1-0.2,0.1c-0.1,0.1-0.2,0.1-0.2,0.2C106.9,54.5,106.9,54.6,107,54.6"/>
<path class="st1" d="M73.4,57.1c0-0.2,0.1-0.4,0.1-0.6c0-0.2-0.2-0.3-0.2-0.5c-0.1-0.1-0.2,0-0.3,0c-0.1-0.1-0.1-0.3-0.2-0.5
	c0,0-0.1,0-0.2,0c-0.1,0-0.2,0.1-0.2,0.2c0,0.1,0.1,0.2,0.1,0.4c0,0.1,0,0.1,0,0.2c0,0.1,0.1,0.3,0.1,0.4c0,0,0,0.1,0.1,0.1
	c0.1,0.2,0.3,0.3,0.4,0.5c0.1,0,0.1,0.1,0.2,0.1C73.3,57.3,73.4,57.2,73.4,57.1"/>
<path class="st1" d="M86.8,56.3c-0.1-0.1-0.2-0.2-0.4-0.2c0,0-0.1,0.1-0.1,0.1c-0.1,0.1,0,0.2,0,0.3l0.1,0.1c0,0.1-0.1,0.1-0.1,0.2
	c0,0.1,0.1,0.2,0.2,0.3c0.2,0.1,0.4,0.1,0.6,0c0.1,0,0.2,0,0.3-0.1c0.2-0.1,0.2-0.2,0.2-0.4c0-0.1-0.1-0.2-0.2-0.2
	C87.2,56.2,87,56.4,86.8,56.3"/>
<path class="st1" d="M73.5,58c0.1,0,0.1-0.1,0.1-0.2c0,0,0-0.1,0-0.1c-0.1,0-0.1-0.1-0.2-0.2c-0.1,0-0.2,0-0.2,0.1
	c0,0.1,0,0.1,0,0.2c0,0.1,0.1,0.1,0.1,0.2C73.3,58,73.4,58,73.5,58"/>
<path class="st1" d="M117.9,57.9c0.1-0.1,0.3,0,0.3-0.1c0,0,0-0.1,0-0.1l-0.1-0.1c-0.2-0.1-0.3,0.1-0.4,0.1c-0.1,0-0.1,0.1-0.1,0.1
	c0,0.1,0,0.1,0.1,0.2C117.7,57.9,117.8,57.9,117.9,57.9"/>
<path class="st1" d="M73.3,58.3c0,0.1,0,0.1,0.1,0.2c0.1,0,0.1,0.1,0.2,0c0,0,0.1-0.1,0.1-0.1l-0.1-0.1
	C73.5,58.3,73.4,58.2,73.3,58.3"/>
<path class="st1" d="M73.8,58.7c0,0,0.1,0,0.1,0c0,0,0,0,0-0.1c0,0-0.1-0.1-0.1-0.1C73.8,58.6,73.7,58.6,73.8,58.7
	C73.7,58.7,73.7,58.7,73.8,58.7"/>
<path class="st1" d="M73.8,58.9c-0.1,0,0,0.1,0,0.2c-0.1,0.1-0.2,0-0.2,0.1c0,0,0,0.1,0,0.1c0,0,0.1,0,0.1,0c0-0.1,0.1,0,0.1-0.1
	c0-0.1,0.1-0.2,0.1-0.3C73.9,58.8,73.8,58.7,73.8,58.9"/>
<path class="st1" d="M59.2,59.6c0-0.1,0-0.1,0-0.2L59,59.2c-0.1,0-0.2,0-0.2,0c-0.1,0-0.1,0.1-0.1,0.2c0.1,0.1,0.1,0.2,0.2,0.2
	C58.9,59.6,59.1,59.7,59.2,59.6"/>
<path class="st1" d="M73.3,59.4c0,0.1-0.2,0.1-0.1,0.3c0,0,0.1,0,0.1,0c0-0.1,0.2-0.1,0.1-0.2C73.5,59.4,73.4,59.4,73.3,59.4"/>
<path class="st1" d="M64.1,59.5c0-0.1-0.1,0-0.1-0.1C63.9,59.5,63.9,59.5,64.1,59.5C64,59.5,64,59.5,64.1,59.5"/>
<path class="st1" d="M120.4,61c0,0,0.1,0,0.1,0c0-0.1,0.1-0.1,0-0.2c0-0.1-0.1-0.1-0.2-0.1c-0.1,0-0.1,0.1-0.1,0.2
	C120.3,60.9,120.4,60.9,120.4,61"/>
<path class="st1" d="M120.3,61.4c0,0,0-0.1,0-0.2c0-0.1-0.1-0.1-0.2-0.1c0,0-0.1,0.1-0.1,0.1c0,0.1,0,0.1,0.1,0.2
	C120.2,61.5,120.3,61.5,120.3,61.4"/>
<path class="st1" d="M103.5,61.3c-0.1,0-0.1,0.2-0.2,0.2c0,0.1,0,0.3,0.1,0.4c0.1,0.1,0.2,0,0.3,0c0.1-0.2,0.2-0.3,0.2-0.5
	C103.8,61.2,103.6,61.3,103.5,61.3"/>
<path class="st1" d="M95.6,62.1c0.1,0,0.2,0,0.3-0.1c0-0.1,0.1-0.2,0.1-0.4c0-0.1-0.1-0.1-0.2-0.1c-0.2,0.1-0.4,0.2-0.5,0.4
	C95.4,62.1,95.5,62.1,95.6,62.1"/>
<path class="st1" d="M90.5,62.2c0-0.1,0-0.2,0-0.3c0,0-0.1,0-0.2,0c0,0-0.1,0.1-0.1,0.1c0,0.1,0,0.2,0.1,0.2
	C90.4,62.3,90.5,62.3,90.5,62.2"/>
<path class="st1" d="M118.8,62.9c0.3,0,0.2-0.3,0.3-0.5c0.1-0.1,0.1-0.2,0.1-0.3c0-0.1-0.2-0.1-0.3-0.1c-0.1,0.2-0.3,0.2-0.4,0.4
	c-0.1,0.1,0,0.3,0,0.4C118.5,62.9,118.7,62.9,118.8,62.9"/>
<path class="st1" d="M90.3,62.8c0,0.1,0,0.1,0.1,0.2c0.1,0,0.1,0.1,0.2,0c0.2-0.1,0.2-0.3,0.2-0.4c0-0.1-0.1-0.1-0.2-0.1
	C90.3,62.5,90.3,62.6,90.3,62.8"/>
<path class="st1" d="M94,63c0.2-0.1,0.5-0.1,0.5-0.4c-0.1-0.1-0.3-0.1-0.4,0c-0.1,0-0.2,0.1-0.4,0.1c-0.1,0-0.2,0.1-0.2,0.1
	c0,0.1,0,0.1,0.1,0.2C93.7,63.1,93.9,63.1,94,63"/>
<path class="st1" d="M91.7,63.3c0.1-0.1,0-0.2,0.1-0.3c0-0.1,0-0.2-0.1-0.2c-0.1,0-0.1,0-0.2,0c-0.1,0.1-0.2,0.1-0.3,0.2
	c0,0.1-0.1,0.2,0,0.2C91.4,63.3,91.6,63.3,91.7,63.3"/>
<path class="st1" d="M110.5,65.2c0-0.1,0-0.1,0-0.2c-0.1-0.1-0.2-0.2-0.4-0.1c-0.1,0.1-0.1,0.3-0.1,0.4c0,0.1,0.1,0.1,0.1,0.1
	C110.4,65.5,110.4,65.3,110.5,65.2"/>
<path class="st1" d="M109.9,66.2c0.1,0,0.2-0.1,0.3-0.2c0-0.1,0-0.1,0-0.2c0-0.1-0.1-0.1-0.2-0.1c-0.1,0-0.2,0.1-0.3,0.1
	c0,0.1,0,0.1,0,0.2C109.7,66.1,109.8,66.2,109.9,66.2"/>
<path class="st1" d="M105.2,68.8c0,0,0.1,0,0.1-0.1c0-0.1-0.2-0.1-0.2-0.2c0,0-0.1,0-0.1,0c0,0.1,0,0.1,0,0.2
	C105,68.7,105.1,68.7,105.2,68.8"/>
<path class="st1" d="M118,74.1c-1.3,1.3-3.3,3.5-4.9,5.3c0.9,0.6,1.8,1.3,2.7,1.9C116.6,79.3,117.2,77.3,118,74.1"/>
<path class="st1" d="M123.2,88.1c1.9-1.4,3.9-3.3,5.4-6.1c-2.1,1.6-5.1,2.8-7.8,3.6C121.6,86.4,122.4,87.2,123.2,88.1"/>
<path class="st1" d="M126,73c2.1-3.8,2.1-6.9,2.1-9.1c0-3-0.5-6.8-1.7-10.6c-1,2.8-1.4,4.5-1.5,6.4c-0.6,6.9,1.8,12.6-0.5,15.7
	c2.3-2.1,8.3-6.8,9.9-9.4c1.9-3.3,3.3-7.2,3.3-11.6c-1.3,5.2-6,9.2-7.6,11.5C128.4,68,127.1,71.7,126,73"/>
<path class="st1" d="M131.5,59.2c0.3-4-0.7-6.6-1.7-8.8c-0.8-1.7-1.5-2.9-3.7-6.4c-0.3,3.6,1,8.1,1.3,9c0.7,2.1,3.7,6.7,2.9,10.3
	c1.9-3.7,5.5-7.7,6.5-11.2c1.1-3.7,1.8-8,0.6-12.3c-0.3,5.3-3.2,7.9-4.3,12.5C132.5,54.8,132,57.4,131.5,59.2"/>
<path class="st1" d="M130.9,38.4c-0.5,4.2,1.2,6.8,0.9,8.4c-0.5-1.7-1-4-2.4-5.7c-2.1-2.3-3.2-3-7.2-6.9c1.5,3.5,3.9,8,4.4,8.8
	c1.4,2.3,5.5,6.3,5.4,9.8c0.7-3.6,2.2-8.3,2.5-11.5c0.2-2.8-0.5-9.4-4.3-13.3C131.9,31.7,131.2,35.6,130.9,38.4"/>
<path class="st1" d="M127.6,34.7c-0.9-1.5-2.6-3.5-4.4-4.8c-2.6-1.7-3.7-2.3-6.1-4.7c1.1,3.2,4.4,6.9,5.1,7.6c3,3.1,5.1,3.5,7.5,7.4
	c-0.4-4,0.6-5.7,0-8.9c-0.5-2.8-2.4-7.7-6.4-10.2c1.1,1.7,2.1,4.1,2.6,6.9C126.6,32.3,127.5,33,127.6,34.7"/>
<path class="st1" d="M125.6,30.5c-0.6-2.3-2.2-5.3-3.4-6.8c-1.3-1.5-5.7-4.1-7.6-4.9c2.3,2.7,4.6,6.4,6.1,7.8
	C122.2,28.1,124.2,29.2,125.6,30.5"/>
<path class="st1" d="M78.6,55.4C78.6,55.4,78.6,55.4,78.6,55.4l0.3,0c0,0,0,0,0,0C78.7,55.4,78.7,55.3,78.6,55.4"/>
<path class="st1" d="M84.4,55.8l-0.3,0.3c0,0,0,0,0,0l0.3,0.1c0.1-0.1,0.3-0.2,0.4-0.2c0.1-0.1,0.2-0.2,0.3-0.2
	c0.3,0.1,0.6,0.1,0.8-0.1c0.2-0.1,0.4,0.1,0.6,0c0.2-0.1,0.4,0,0.5-0.2c0,0,0.1,0,0.1,0c0.1-0.1,0.2-0.1,0.1-0.2c0,0,0-0.1-0.1-0.1
	c0,0-0.1,0-0.1,0c0,0,0-0.1,0-0.1c0.1,0.1,0.2-0.1,0.3-0.1c0,0,0-0.1,0-0.1c0-0.1,0.1-0.2,0.1-0.3c0-0.1-0.1-0.1-0.1-0.2
	c0.1-0.1,0.2-0.1,0.2-0.2c0.1,0,0.1-0.1,0.2-0.1c-0.1-0.2,0.2-0.3,0.2-0.5c0.1-0.1,0.2-0.3,0.1-0.4c-0.1-0.1-0.3,0-0.3-0.2
	c0.1-0.1,0.2-0.1,0.2-0.2c0-0.1-0.1-0.1-0.1-0.2c-0.3-0.2-0.6-0.4-0.9-0.3c-0.1,0-0.1,0-0.2,0c-0.1,0.1-0.3,0.1-0.4,0
	c-0.1,0-0.1,0.1-0.2,0c-0.1,0.1-0.3,0-0.4,0.1c-0.2-0.1-0.4,0-0.5,0c0,0.1-0.1,0.1-0.1,0.2c0,0.1,0,0.2,0,0.3c0,0.1,0,0.3-0.1,0.4
	c0,0.2-0.1,0.4,0,0.6c0,0.1,0,0.2-0.1,0.2c0,0-0.1,0-0.1-0.1c-0.1-0.1,0.1-0.2,0.1-0.3c-0.1,0-0.1,0.1-0.1,0.1
	c-0.2,0-0.3,0.1-0.5,0.2c-0.1,0-0.1,0.2-0.1,0.3c0,0.1-0.1,0.2-0.2,0.3l-0.2,0.2c-0.1,0.1-0.2,0.3-0.3,0.4c0,0.1-0.1,0-0.1,0.1
	c-0.1,0-0.1,0.1-0.1,0.2l0,0.1l0.2-0.2L84.4,55.8z M86.1,55.3C86.1,55.3,86.1,55.4,86.1,55.3c0.1,0.1,0.1,0.1,0,0.1
	C86.1,55.5,86,55.5,86.1,55.3C86,55.4,86,55.4,86.1,55.3"/>
<path class="st1" d="M87.9,59.1c0.1,0,0-0.2,0.1-0.2l0,0c-0.1,0-0.2,0-0.3,0c0,0.1,0,0.2,0.1,0.2C87.8,59.1,87.9,59.1,87.9,59.1"/>
<path class="st1" d="M108.2,69.7c0-0.2,0.1-0.3,0.1-0.5c0-0.2,0-0.5-0.1-0.7c0-0.2-0.1-0.4-0.2-0.6c0-0.3,0.1-0.5-0.2-0.7
	c-0.1,0-0.1-0.1-0.1-0.2c0-0.1,0-0.2,0-0.3c-0.1-0.1-0.2-0.1-0.3-0.2c-0.2-0.1-0.4-0.2-0.7-0.2c-0.1,0-0.1,0.1-0.2,0.1
	c0,0.1,0,0.3-0.1,0.4c0.1,0.3-0.1,0.5-0.1,0.8c0,0-0.1,0.1-0.1,0l0,0L108.2,69.7L108.2,69.7z"/>
<path class="st1" d="M105.8,69c0,0.1,0.1,0.1,0,0.2c0.1,0.1,0.1,0.3,0.3,0.4c0.1,0.1,0.1,0.2,0.1,0.3c0.1,0.1,0.1,0.2,0.1,0.3
	c0.1,0.1,0.2,0.2,0.3,0.2c0.1,0,0.3,0,0.4,0.1c0.1,0,0.2-0.1,0.2,0l0.1,0l-1.6-1.6l0,0C105.8,68.9,105.8,69,105.8,69"/>
<path class="st1" d="M104.7,68.2c0,0.1,0,0.1,0.1,0.2c0.1,0,0.2-0.1,0.2-0.2l0.1-0.1L105,68l-0.1,0C105,68.2,104.7,68.1,104.7,68.2"
	/>
<path class="st1" d="M108.6,48c-0.1,0.1-0.1,0.2-0.2,0.3c0,0.2,0,0.4,0,0.6c0,0.1-0.1,0.2,0,0.3c0,0.1,0.1,0.1,0.1,0.2
	c0.1,0.1,0.2-0.1,0.4,0c0-0.5-0.1-1.1-0.2-1.6C108.6,47.8,108.6,48,108.6,48"/>
<path class="st1" d="M110,47c0.1-0.1,0.2-0.3,0.2-0.4c0.1-0.1,0-0.3,0-0.5c0.1-0.1,0-0.2,0.1-0.4c-0.1-0.1-0.1-0.2-0.2-0.3
	c-0.3,0-0.5,0.3-0.7,0.5c-0.1,0-0.1,0.2-0.2,0.2c0,0-0.1,0.2-0.1,0.2c0,0.1,0,0.1-0.1,0.2c0,0.1-0.1,0.2-0.1,0.3
	c0,0.1-0.1,0.2-0.1,0.4c0.1,0.2-0.1,0.2-0.2,0.4c0,0-0.1,0.1-0.1,0.1l1-0.2c0,0,0,0,0,0l0,0C109.8,47.3,109.9,47.2,110,47"/>
<path class="st1" d="M87.8,59.4L87.8,59.4C87.9,59.3,87.9,59.3,87.8,59.4C87.9,59.3,87.8,59.3,87.8,59.4"/>
<path class="st1" d="M72.3,50.5c0-0.1,0-0.2,0-0.3c0-0.1,0-0.1-0.1-0.2c0-0.1,0.1-0.2,0-0.3c0.1-0.2,0.2-0.2,0.3-0.2
	c0.2-0.1,0.4-0.2,0.5-0.2c0.2,0,0.3,0,0.4,0c0.2,0,0.4,0.1,0.4,0.2c0.1,0.1,0.2,0.1,0.2,0.3c0.1,0.1,0.1,0.3,0.1,0.4
	c0,0,0,0.1,0,0.1c0,0.1,0,0.1,0,0.2l0,0.1h4.8v0.9h-5l0,0.1c0,0.1,0.1,0.2,0.2,0.3c0,0,0,0,0.1,0c0.1,0,0.2,0,0.2,0.1
	c0,0.1-0.1,0.2-0.2,0.3c0,0.1,0,0.2,0,0.3c0,0.1-0.1,0.3-0.2,0.4C74.2,53,74.1,53,74,53c-0.1,0-0.2,0.2-0.3,0.2c-0.1,0-0.2,0-0.3,0
	c-0.2-0.3-0.3-0.7-0.7-0.6c-0.1,0-0.1,0.1-0.2,0.1c0,0.2,0.2,0.3,0.1,0.6c0,0.1,0,0.2,0.1,0.3c0,0.1,0,0.1,0,0.2c0,0.1,0,0.2,0,0.3
	c0,0.1,0,0.3,0,0.4c0,0,0,0.1-0.1,0.1c-0.1,0-0.2-0.2-0.3-0.2c-0.1,0-0.2,0-0.3,0.1c-0.1,0.2,0,0.3,0.1,0.4c0,0.1,0.1,0.3,0.2,0.3
	c0.1,0,0.2-0.1,0.3,0c0,0.1,0.1,0.2,0.1,0.2c0,0,0,0,0,0c0.1,0,0.2,0.1,0.3,0c0,0,0,0,0.1,0c0,0,0,0,0,0c0,0,0,0,0,0
	c0,0,0,0.1,0,0.1c0,0.1,0,0.1,0,0.2c0.1,0.1,0.2,0.2,0.3,0.1c0,0,0-0.1,0-0.1c0-0.1-0.2-0.1-0.1-0.2c0.1,0,0.1-0.1,0.2-0.1
	c0,0,0,0,0,0c0.1-0.1,0.3-0.2,0.4-0.3c0-0.1-0.1-0.1-0.1-0.2l-0.1,0c-0.1,0.1-0.1,0.2-0.2,0.3c-0.1,0-0.2,0-0.2,0.1
	c0-0.3,0-0.5,0.1-0.8c0,0,0-0.1,0.1-0.1c0.1,0,0.1,0.1,0.2,0.2c0.1,0,0.1-0.1,0.2-0.1c0.1-0.1,0.2-0.1,0.2-0.1c0,0,0,0.1,0,0.2
	c-0.1,0.1-0.1,0.3-0.3,0.3c0,0,0,0.1,0,0.1c0.1,0,0.1,0.1,0.2,0.1c0.1,0,0.2-0.3,0.3-0.1l0.2-0.1c-0.1-0.3-0.1-0.5-0.2-0.8l1-0.2
	c0,0.1,0.1,0.2,0.1,0.3c0,0,0.1-0.1,0.1-0.2c0,0,0.1,0,0.1,0l0.2,0.2c0.1,0.1,0.2,0.2,0.4,0.3c0.2,0.1,0.3,0,0.5,0c0,0,0.1,0,0.1,0
	c0.1,0,0.2,0,0.3,0c0.1,0.1,0.3,0,0.4,0.1c0.2,0.1,0.2,0.3,0.2,0.5c0.1,0.2,0.2,0.2,0.4,0.2c0,0,0,0,0,0c0-0.1,0-0.2,0-0.3
	c0,0,0.1,0.1,0.1,0.1c0.1,0,0.2,0.2,0.3,0.2c0.1,0.1,0.1,0.2,0.2,0.1c0.1,0.1,0.2,0,0.2,0.2c0,0,0,0,0,0c0,0,0,0-0.1,0h-0.3
	c0,0-0.1,0.1-0.1,0.1c0,0.2,0.1,0.2,0.2,0.3c0.1,0.2,0.3,0.3,0.4,0.4c0.1,0.1,0.1-0.1,0.2,0c0.1,0.1,0,0.3,0.1,0.3
	c0.1,0,0.2,0,0.3,0c0.1-0.2-0.1-0.3-0.1-0.4c0,0,0,0,0.1,0c0,0,0,0,0.1,0c0-0.1,0-0.3-0.1-0.3c0,0-0.1,0-0.1-0.1c0-0.1,0-0.2,0-0.2
	c0.1,0,0.1,0.1,0.2,0.1c0,0,0,0.1,0.1,0.1c0.1,0.1,0.1,0.2,0.1,0.2c0,0.1-0.1,0.1-0.1,0.2c0,0.1,0.1,0.1,0.1,0.2
	c0,0.1,0,0.2-0.1,0.2c0,0.1,0.1,0.1,0.1,0.2c0,0.1,0,0.1,0,0.2c0,0.1,0.1,0.1,0.2,0.2c0,0,0.1,0.1,0,0.2c0,0.1-0.1,0.1,0,0.2
	c0.1,0.1,0.2,0.1,0.3,0.1c0.2,0,0.2-0.2,0.3-0.3c0,0,0.1-0.1,0.1-0.1c0.1-0.1,0.1-0.3,0-0.4c0.1-0.2,0.4-0.2,0.4-0.4
	c0.1-0.1,0.2-0.1,0.2-0.2c0.1-0.2,0.1-0.4,0.2-0.6c0,0,0,0,0,0c0-0.1,0.1-0.1,0.1-0.1l0.1-0.1c-0.1-0.2-0.2-0.3-0.3-0.5l0.9-0.5
	l0.1-0.1l0.2-0.2c0.1,0,0.2,0,0.2-0.1c0-0.1,0.1-0.2,0.2-0.2c0,0,0,0,0,0c0,0,0.1-0.1,0.1,0c0,0,0,0,0,0c0,0,0,0.1,0,0.1
	c0,0,0,0.1,0,0.1c0,0.1,0.1,0.1,0.1,0.1c0.1,0,0.2,0.1,0.4,0c0.1-0.1,0.2-0.2,0.2-0.3c0,0,0,0,0,0c0-0.1,0-0.3,0.1-0.4
	c0-0.2,0.1-0.3,0.2-0.4c0.1-0.2,0.2-0.3,0.3-0.5c0.1-0.1,0.1-0.2,0.3-0.3c0,0,0-0.1,0-0.1c0,0-0.1-0.1-0.1-0.1c0,0,0,0-0.1,0
	c-0.1,0-0.2-0.1-0.2-0.2c0.1-0.3,0.1-0.5,0-0.8c0-0.1,0.1-0.2,0.1-0.3c-0.1-0.1-0.2-0.2-0.3-0.2c-0.1,0-0.1,0.1-0.2,0.1h-0.1
	L84,50.9c0,0.1,0,0.2,0.1,0.3c0.1,0,0.2,0,0.3,0c0.1,0,0.1,0,0.1,0.1c0,0,0,0.1-0.1,0.1c-0.2,0-0.3,0.1-0.5,0.2
	c-0.1,0.1,0,0.2-0.1,0.2c0,0.1,0,0.2,0,0.3c0,0,0,0.1,0.1,0.1c0.1,0.1-0.1,0.2-0.2,0.3c-0.1,0.1-0.2,0.1-0.2,0.2
	c0,0.1-0.1,0.1-0.1,0.1c-0.1,0-0.1,0-0.1-0.1c0,0,0-0.1,0.1-0.1c0,0,0.1,0,0.1,0c0,0,0-0.1-0.1-0.1c-0.1,0-0.1-0.2-0.2-0.2
	c-0.1,0-0.3-0.1-0.4,0c0,0.1-0.1,0.2-0.2,0.2c-0.1,0-0.2,0.1-0.2,0c-0.1-0.1-0.2,0-0.3,0c-0.1,0-0.2,0-0.3,0.1c-0.1,0-0.3,0-0.5,0.1
	c-0.1,0-0.2,0-0.3,0c0,0,0.1-0.1,0.1-0.1c-0.1-0.1-0.1-0.1-0.2-0.1c-0.1,0-0.2,0-0.2,0.1c0,0.1-0.1,0.1-0.1,0.2l-0.1,0
	c-0.2,0-0.3,0-0.5-0.1c0-0.1,0.1-0.1,0.1-0.2c0.2-0.2,0.5-0.1,0.6-0.3c0,0,0-0.1,0-0.1c0,0,0-0.1,0-0.1l0-0.3
	c0.1-0.2,0.2-0.4,0.4-0.6c0.1,0,0.2-0.1,0.1-0.2l0,0c0.2,0,0.4-0.1,0.5,0c0.1,0.1,0.2,0.2,0.3,0.3c0.1,0,0.2,0.1,0.2,0l0.1-0.2
	c0-0.1-0.2-0.2-0.1-0.3c0.2,0,0.2,0.2,0.4,0.3c0.1,0.1,0,0.2,0,0.2c-0.1,0.1-0.2,0-0.2,0.1c-0.1,0.1,0,0.1-0.1,0.2
	c-0.1,0.1-0.2,0.2-0.2,0.3c0,0.1-0.1,0.1,0,0.1c0.1,0,0.3,0.1,0.4,0c0.1-0.1,0.1-0.2,0.1-0.3c0-0.1-0.2-0.3-0.1-0.4
	c0.1,0,0.1,0.2,0.2,0.3c0,0.2,0,0.3,0.1,0.5c0.1,0,0.1,0,0.2,0c0.1,0,0.1,0,0.2,0c0.1-0.1,0.2,0.1,0.3,0c0,0,0,0,0,0
	c-0.1-0.1,0.1-0.3,0-0.4l0-0.1l0.1-0.1c0-0.2,0.1-0.4,0-0.6c0-0.1,0-0.3,0-0.4c0-0.1,0-0.1,0.1-0.2c0.1,0,0.1,0.1,0.1,0.1
	c0.2,0,0.4-0.1,0.6-0.1c0-0.1,0.1,0,0.1-0.1c0.1,0,0.2-0.2,0.2-0.3c0-0.2-0.2-0.1-0.2-0.2c-0.2-0.1-0.4-0.2-0.6,0
	c0,0.1-0.1,0.1-0.2,0.2c0,0-0.1,0.1-0.1,0c0-0.1,0-0.2,0-0.3c0.1-0.1,0.2-0.2,0.3-0.3c0-0.1,0.2-0.2,0.3-0.4c0.1,0,0.2,0,0.3,0
	c0.2-0.1,0.1-0.3,0.2-0.4c0-0.1,0.1-0.3,0.2-0.4c0.1,0,0.3,0,0.4-0.1c0.3,0,0.5-0.3,0.8-0.3c0.1,0,0.2-0.1,0.2-0.1
	c0.1-0.2,0.2-0.3,0.4-0.4c0.1-0.1,0.1-0.1,0.2-0.2c0-0.1,0.1-0.2,0-0.2c-0.1-0.1-0.2-0.2-0.1-0.3c0-0.1,0-0.1,0-0.2
	c-0.1-0.1,0-0.2,0-0.2c0-0.1-0.1-0.3,0.1-0.4l0.4-0.1c0,0,0,0,0,0c0,0,0-0.1,0-0.1c-0.1-0.1-0.3-0.1-0.4,0c-0.1,0-0.1,0.1-0.1,0.1
	c0,0,0,0,0,0c0,0,0,0.1-0.1,0.1c-0.1,0-0.1-0.1-0.1-0.1c0,0,0,0,0,0c0-0.1,0-0.2,0.1-0.3c-0.3,0.1-0.6,0.1-0.8,0.2l-0.4-1
	c0,0,0.1,0,0.1,0c0-0.2,0.3-0.4,0-0.6c-0.1,0-0.2,0.1-0.3,0.2c-0.1,0.2-0.2,0.3-0.2,0.4c-0.1,0.1-0.2,0.3-0.2,0.4
	c0,0.1-0.2,0.1-0.1,0.2c-0.1,0.1-0.2,0.3-0.4,0.4c0,0,0,0-0.1,0c0,0-0.1,0.1-0.2,0c0,0,0,0,0,0c0,0-0.1,0-0.1,0c0,0,0,0,0,0
	c-0.2,0.1,0,0.4-0.3,0.4c0-0.1-0.1-0.1-0.2-0.1c-0.1,0.1-0.2,0.2-0.4,0.1l-0.1,0l0.3,0.3l-0.7,0.7l-0.9-0.9c0,0.1-0.1,0.1-0.1,0.1
	H82c-0.1,0.1-0.1,0.1-0.2,0.1c-0.1-0.1,0.1-0.1,0-0.2c-0.1-0.1-0.2-0.1-0.3-0.2c-0.1-0.1-0.3,0.1-0.3-0.1c0,0-0.1,0-0.2,0
	c-0.2,0-0.3,0.1-0.5,0.1c-0.1,0-0.1,0.1-0.1,0.1c0,0,0-0.1,0-0.1c-0.1-0.2-0.3-0.2-0.4-0.3c0,0,0,0,0,0c-0.1-0.2-0.3-0.4-0.5-0.4
	c-0.2-0.1-0.3-0.3-0.6-0.3c-0.3-0.1-0.6-0.2-1-0.1c-0.1,0-0.2,0-0.3,0c-0.2,0-0.4,0.2-0.6,0.4c-0.1,0.1-0.3,0.1-0.4,0.1
	c-0.7,1.3-1.2,2.7-1.5,4.2l-1-0.2c0.2-1,0.4-2,0.8-2.9l-0.3,0.1c-0.1,0.1-0.3,0-0.5,0.1c-0.1,0.1-0.2,0.1-0.3,0.2
	c-0.1,0-0.2,0.1-0.3,0.1c-0.1,0.1-0.3,0.2-0.5,0.1c-0.1-0.1-0.3-0.1-0.4,0c-0.1,0-0.1,0.1-0.2,0.1c-0.1,0.2-0.2,0.4-0.3,0.5
	c0,0.1-0.1,0.2-0.1,0.3c-0.1,0.1-0.2,0.2-0.3,0.3c0,0.1-0.1,0.3-0.1,0.4c-0.1,0.1-0.2,0.3-0.3,0.4c0,0.1,0,0.3-0.1,0.4
	c0,0.1,0,0.1,0,0.1c0,0.1,0,0.2,0.1,0.3c0.1,0.3-0.2,0.5-0.4,0.7c0,0,0,0,0,0c0,0.1-0.1,0.1-0.1,0.2l0,0.1L72.3,50.5L72.3,50.5z
	 M74,54c0,0.1,0,0.2,0,0.2c-0.1-0.1-0.2-0.1-0.3-0.1c-0.1,0-0.2,0.1-0.4,0.2l0,0c0-0.2,0-0.3,0.1-0.4c0-0.1,0-0.1,0-0.2
	c0.1,0,0,0.1,0.1,0.1c0.1,0.1,0.2,0.2,0.4,0.2c0,0,0.1,0,0.1,0C74.1,54,74,54,74,54 M77.2,54.2c-0.1,0-0.1,0-0.2,0.1
	c0,0,0-0.1,0-0.1c0.1-0.1,0.2-0.2,0.3-0.1l0,0C77.3,54.1,77.2,54.2,77.2,54.2 M82.1,53.6c0-0.1,0.2-0.2,0.3-0.2c0,0,0.1,0,0.1,0.1
	c0,0.1-0.1,0.2-0.1,0.3c-0.1,0,0,0.1-0.1,0.2c0,0.1,0,0.2,0,0.2c0,0,0,0.1,0,0.1c0,0,0,0,0,0c0,0,0-0.1,0-0.1c0-0.1,0-0.1-0.1-0.1
	c0,0-0.1,0-0.1-0.1C81.9,53.8,82,53.8,82.1,53.6 M84.1,49.8C84.1,49.8,84.1,49.8,84.1,49.8c0.1,0.1,0,0.2,0,0.2c-0.1,0,0-0.1,0-0.1
	C84,49.9,84.1,49.8,84.1,49.8 M80.4,45.6l-0.1,0.1c0.2,0.2,0.4,0,0.6,0.1c0-0.1,0.2-0.1,0.2-0.2c0,0,0,0,0,0c0,0.1,0,0.1-0.1,0.2
	c-0.1,0-0.2,0-0.3,0.1c-0.1,0-0.2,0-0.4,0c-0.1-0.1-0.3-0.1-0.3-0.3C80.2,45.7,80.3,45.6,80.4,45.6 M80.8,56.1c0.1,0,0.2,0,0.4,0
	c0.1,0,0.1,0,0.1,0.1c0,0,0,0,0,0c-0.1,0-0.1,0.2-0.2,0.2c-0.1,0-0.1,0-0.2,0c-0.1-0.1-0.2-0.2-0.3-0.2c0,0-0.1-0.1-0.1-0.1
	C80.5,56,80.6,56,80.8,56.1 M79.9,55.3c0.1,0,0.2,0.2,0.3,0.2c0.1,0.1,0.2,0.2,0.2,0.3c0,0,0,0.1,0,0.1c-0.1-0.1-0.2-0.3-0.4-0.3
	C80,55.4,79.8,55.3,79.9,55.3 M79.6,54.8c0.1,0,0.2,0,0.2,0.1c0,0.1,0,0.1,0,0.2C79.7,55.1,79.7,55,79.6,54.8L79.6,54.8z"/>
<path class="st1" d="M75.1,45.2c-0.1,0.1-0.2,0.2-0.3,0.3c-0.1,0.1-0.3,0-0.4,0.1c-0.1,0-0.2,0.2-0.4,0.2c-0.1,0.1-0.1,0.2-0.1,0.2
	c0.1,0.1,0.2,0.2,0.4,0.2L75,46c0.1-0.3,0.3-0.6,0.4-0.9l-0.2,0C75.2,45.1,75.1,45.2,75.1,45.2"/>
<path class="st1" d="M80.4,46c0.1,0,0.2,0,0.4,0c0.1-0.1,0.2-0.1,0.3-0.1c0.1,0,0.1-0.1,0.1-0.2c0,0,0-0.1,0,0
	c-0.1,0.1-0.2,0-0.2,0.2c-0.2-0.1-0.4,0.1-0.6-0.1l0.1-0.1c-0.1,0-0.1,0-0.2,0.1C80.1,45.9,80.3,45.9,80.4,46"/>
<path class="st1" d="M84.1,50c0,0,0.1-0.1,0.1-0.1c0,0,0-0.1-0.1-0.1C84.1,49.8,84,49.9,84.1,50C84.1,49.9,84,50,84.1,50"/>
<path class="st1" d="M82,54c0.1,0,0.1,0.1,0.1,0.1c0,0,0,0,0,0.1c0,0,0,0,0,0c0,0,0,0,0-0.1c0.1,0,0-0.1,0-0.2c0,0,0-0.1,0.1-0.2
	c0-0.1,0.1-0.2,0.1-0.3c0,0,0-0.1-0.1-0.1c-0.1,0.1-0.2,0.1-0.3,0.2c0,0.1-0.1,0.2-0.2,0.3C81.9,54,82,54,82,54"/>
<path class="st1" d="M88.5,45.2c0,0,0,0.1,0.1,0.1c0.1,0,0.2,0,0.3,0c0,0,0.1,0,0.1,0.1c0,0.1-0.1,0.1-0.1,0.1l-0.5-0.1
	c-0.1-0.2-0.3-0.1-0.5,0c-0.1,0-0.1,0.1-0.2,0.1c0,0.1-0.2,0-0.1,0.1c0,0.1,0,0.3,0.1,0.4c0,0,0,0,0,0v0c0.1,0.1,0.2,0.2,0.4,0.3
	c0.1,0.1,0.2,0.1,0.3,0.2c0,0.1,0.1,0.3,0.2,0.3c0.1,0.1,0.3,0,0.4-0.1c0.2,0,0.4,0.2,0.6,0.2c0.1,0,0.2,0,0.3,0
	c0.2,0,0.2,0.2,0.3,0.3c0.1,0.1,0.2,0.2,0.4,0.3c0.1,0.2,0.3,0.3,0.4,0.5l0.2,0.2c0.1,0,0.3-0.1,0.4,0c0.1,0,0.1-0.1,0.2,0
	c0,0.2-0.2,0.3-0.1,0.5c0,0.1,0,0.1,0,0.2c0,0,0,0.1,0,0.1c0,0.1,0.1,0.1,0,0.2c0,0.1,0.2,0.1,0.2,0.2c0,0.1,0,0.2,0,0.3
	c0,0.2-0.5,0.1-0.4,0.4c0,0,0,0.1,0,0.1c-0.1,0.1-0.1,0.2-0.3,0.3c0,0.1,0.1,0.2,0.1,0.3c0.1,0,0.1,0.1,0.2,0.1c0,0,0.1-0.1,0.1,0
	c0.1,0.1,0.2,0.1,0.2,0.2c0.1,0.2,0.2,0.4,0.3,0.6c0.1,0.1,0.1,0.2,0.2,0.2c0.1,0,0.1-0.1,0.2-0.1c0-0.1,0-0.1,0.1-0.2
	c0,0,0.1,0,0.1,0c0,0.1,0,0.1-0.1,0.1c0,0.1,0,0.1,0,0.2c0,0,0,0-0.1,0.1c-0.1,0-0.2,0.1-0.2,0.2c0,0.1,0.1,0.1,0.2,0.1
	c0.2-0.1,0.4-0.1,0.5-0.1c0.2,0,0.4-0.1,0.5-0.2c0,0,0,0,0,0c0,0,0.1,0,0.1,0c0,0,0,0,0,0c0,0,0,0.1,0,0.1c0,0.1-0.2,0.1-0.2,0.2
	c0,0,0,0.1,0.1,0.1c0.1,0,0.1,0,0.2,0.1c0,0.1-0.1,0-0.1,0c-0.3,0-0.5-0.1-0.8-0.1c-0.1,0-0.2,0.1-0.4,0c-0.1,0-0.2,0-0.2,0
	c0,0-0.1,0-0.1,0.1c0,0.3,0.2,0.5,0.4,0.6c0,0.1,0.1,0.1,0.1,0.2c-0.1,0.1-0.1,0.2-0.2,0.3c0,0.1,0.1,0.2,0,0.3c0,0.1,0,0.2,0,0.3
	c-0.1,0.1-0.3,0.2-0.2,0.4c0,0.1-0.1,0.2-0.1,0.2c0,0,0,0.1,0,0.1c-0.1,0.1-0.2,0-0.3,0c-0.3,0.1-0.6,0.1-0.9-0.1c0,0,0,0,0,0
	c-0.1,0-0.1,0-0.1,0c0,0-0.1,0-0.2,0c-0.1,0.1-0.3,0.2-0.4,0.4c-0.1,0.1-0.1,0.2-0.2,0.3c-0.1,0.1-0.1,0.2-0.2,0.3
	c-0.1,0.1-0.1,0.2-0.1,0.4c0,0.2,0,0.4-0.1,0.5c0,0.1-0.1,0.2-0.1,0.2c0,0.2-0.2,0.2-0.3,0.4c0,0.1,0,0.3-0.1,0.4c0,0,0,0,0.1,0.1
	c0.2,0,0.4,0,0.6-0.1l0.1,0.5c0-0.1,0.1-0.1,0.1-0.2c0.1,0,0.1,0,0.2,0c0.1,0.1,0.1,0.2,0.1,0.3c0,0.1,0,0.2,0.1,0.3
	c0,0.1,0,0.2,0.2,0.2c0.1,0,0.2,0.1,0.3,0.1c0.1,0,0.1-0.2,0.2-0.3c0-0.1,0-0.2,0-0.3c0.1-0.1,0.1-0.2,0.1-0.3c0,0,0-0.1-0.1-0.1
	c0-0.1-0.1-0.1-0.1-0.2c0-0.1,0-0.2-0.1-0.2c0-0.2,0-0.4,0-0.6c0-0.1,0-0.2,0.1-0.3c0.1,0,0.2,0.1,0.2,0.2c0,0.1-0.1,0.2,0,0.3
	c-0.1,0.1,0,0.2,0,0.4c0,0.1,0,0.2,0.1,0.3c0.1,0.1,0.3,0,0.4,0.1c0,0,0,0,0,0c0,0.1-0.1,0.1-0.2,0.1c-0.1,0-0.2,0-0.3,0.1
	c0,0.1,0.1,0.2,0.2,0.3c0,0.1,0,0.1,0,0.2c-0.1,0.1-0.2,0.1-0.2,0.2c-0.1,0.1-0.1,0.3-0.3,0.3c-0.1,0-0.2-0.1-0.4-0.1
	c-0.1,0-0.2,0-0.2-0.1c0-0.1,0-0.1,0-0.2c-0.1-0.1-0.2-0.3-0.3-0.5c-0.1,0-0.1,0-0.2,0l0.1,0.5c-0.1,0-0.2,0-0.4,0
	c0,0.1,0.1,0.3,0,0.4c-0.1,0-0.1,0.1-0.2,0.1c0,0,0,0,0,0c0,0,0,0.1,0,0.1c0,0,0.1,0.1,0.1,0.1c-0.1,0-0.1,0-0.2,0
	c-0.1,0-0.2,0.1-0.2,0c0-0.1,0-0.1-0.1-0.2c0,0,0,0-0.1,0c0,0-0.1-0.1-0.1-0.1c0-0.1,0-0.2,0-0.2c0,0-0.1-0.1-0.1-0.1
	c-0.1,0-0.1,0-0.2,0c-0.1,0-0.2,0-0.2,0l-0.2,0c0,0.1,0,0.2,0.1,0.3c0,0.1,0.1,0.1,0.1,0.1c0,0,0,0,0,0c-0.1,0-0.1,0.1-0.2,0
	c0,0-0.1-0.1-0.1-0.1h-0.1c-0.1,0,0,0.2-0.1,0.2c0-0.1-0.1-0.2,0-0.2c0,0,0,0,0,0c0-0.1-0.1-0.2-0.2-0.2c-0.1,0-0.2,0.1-0.3,0.1
	c0,0,0,0.1,0,0.1c0,0,0,0,0,0.1c0,0.1,0.1,0.1,0.1,0.1c-0.1,0-0.2,0.2-0.2,0.3c0,0.2,0.2,0.2,0.3,0.3c0.1,0,0.2,0,0.3-0.1
	c0.1-0.1,0.2-0.3,0.2-0.4c0.1,0,0.1,0.1,0.2,0.1c0,0.1,0.1,0.1,0.1,0.2c-0.1,0.1-0.1,0-0.2,0.1c-0.1,0.1-0.2,0.1-0.1,0.2
	c0,0.1,0.1,0.1,0.1,0.2c0.1,0,0.3-0.1,0.4-0.1c0.1,0,0.1-0.1,0.1-0.2c0.1,0,0.2-0.3,0.3-0.2c0.1,0,0.2,0,0.3-0.1c0,0,0-0.1,0.1-0.1
	c0.1,0.1,0,0.2,0,0.3c-0.1,0-0.1,0-0.2,0.1c-0.1,0.1-0.2,0.1-0.4,0.2c-0.1,0,0,0.2-0.1,0.2c-0.2,0-0.4-0.1-0.6,0.1
	c0,0.1-0.1,0.1-0.1,0.2c0,0,0,0.1,0,0.1c0.1,0.1,0.1,0.1,0.2,0.2c0.1,0,0.1,0,0.1,0c0.1,0.1,0.2,0.3,0.1,0.4c0,0.1-0.1,0.2-0.2,0.2
	c-0.2,0-0.4,0-0.6,0c-0.1,0-0.3,0-0.3,0.1c-0.1,0-0.1,0.2-0.2,0.2c0,0.1,0,0.2-0.1,0.3c0,0,0,0,0,0c0,0.1,0,0.1,0,0.2
	c-0.1,0.1,0,0.2,0,0.4c0,0.1,0,0.2-0.1,0.4c0,0.1,0.1,0.2,0.1,0.2c0.1,0.1,0.3,0,0.3,0.2c0,0,0,0.1,0,0.1c0,0,0,0,0,0
	c0.1,0,0.2,0,0.3,0c0,0,0,0,0,0c0.1,0,0.2-0.1,0.4-0.1c0.1,0,0.1-0.1,0.1-0.2c0.1-0.1,0.3-0.1,0.4-0.1c0.1,0,0.2,0.1,0.3-0.1
	c0-0.1,0-0.2,0-0.2c0.1-0.1,0.2-0.1,0.2-0.2c0.1-0.1,0.1-0.2,0.2-0.3c0.1-0.1,0.2-0.1,0.3-0.2c0-0.1-0.1-0.1-0.1-0.1c0,0,0,0,0-0.1
	c0,0,0.1-0.1,0.1-0.1c0.1,0,0.2,0.1,0.4,0c0.2-0.2,0.3-0.3,0.6-0.4c0-0.1,0.1,0,0.2,0c0.2,0.1,0.2,0.3,0.4,0.4c0.1,0,0.2,0,0.3,0
	c0.1,0.1,0.2,0.1,0.4,0.1c0.1,0,0.2,0.1,0.2,0.2c0.1,0.1,0.1,0.2,0.2,0.2c0,0.1,0.1,0.1,0.2,0.1c0.1-0.1,0.1-0.2,0.1-0.4
	c0,0-0.1-0.1-0.1-0.2c0,0,0,0,0,0c0-0.1,0.2,0,0.2-0.1c-0.1-0.1-0.3-0.1-0.3-0.3c-0.1,0-0.1,0-0.2,0c0-0.1-0.2-0.1-0.2-0.2
	c-0.1,0-0.1-0.1-0.2-0.1c-0.1,0-0.2-0.1-0.2-0.2c0-0.1,0-0.1,0.1-0.1c0.2,0,0.3,0.1,0.5,0.1c0.1,0.1,0.4,0.1,0.5,0.3
	c0,0,0.1,0,0.1,0.1c0,0.1-0.1,0.1,0,0.2c0.1,0.1,0.1,0.2,0.2,0.3c0,0,0,0,0.1,0.1c0.1,0,0.2,0,0.2,0c0,0,0,0,0,0c0,0,0,0.1-0.1,0.1
	c0.1,0.1,0.2,0.3,0.3,0.3c0.1,0,0.2-0.1,0.3-0.2c0.1,0.1,0.2-0.1,0.3,0c0.1-0.1,0.1-0.1,0-0.2c0,0,0-0.1,0-0.1
	c-0.1-0.1-0.2-0.2-0.3-0.2c0,0,0-0.1,0-0.1c0.1,0,0.1-0.1,0.1-0.2c0.3,0,0.4,0.2,0.6,0.4c0.1,0,0.2,0.1,0.3,0.1
	c0.2,0.1,0.3-0.1,0.4-0.2c0.1,0,0.2,0,0.3-0.2c0-0.1,0.1-0.1,0.1-0.2c0.1-0.2,0.3-0.2,0.5-0.2c0.1-0.1,0.2-0.2,0.3-0.2
	c0.1,0,0.2,0.2,0.2,0.3c0,0.2,0,0.3,0,0.5c0,0.1,0,0.2,0,0.2c0,0,0,0,0,0c0,0-0.1,0.1-0.1,0.1c-0.1,0.2-0.3,0.2-0.5,0.3
	c-0.1,0.2-0.4,0.3-0.6,0.3c-0.2,0.1-0.4,0.1-0.6,0.2c-0.1,0.1-0.2,0-0.2,0.1c-0.2,0-0.3,0.1-0.4,0.1c-0.1,0.1-0.3,0.1-0.4,0.2
	c-0.1,0.1-0.1,0.2-0.2,0.2c0.4-0.1,0.7-0.3,1.1-0.4l0.5,0.9c-1.8,0.8-3.6,1.3-5.5,1.4v4c1.6,0.3,3.3,0.7,5,1.2c3.7-1,7-3.1,9.5-5.8
	c0-0.1,0-0.2,0-0.2c0-0.1,0-0.3,0-0.4c0-0.1,0-0.2,0-0.3c0,0,0-0.1,0-0.2c0,0,0-0.1,0-0.1c0-0.2-0.1-0.3-0.1-0.5
	c0-0.2-0.1-0.3-0.1-0.4c0-0.1-0.1-0.2-0.2-0.3c-0.1-0.1-0.2-0.1-0.3,0c-0.2,0.1-0.2,0.3-0.4,0.5c0,0.1-0.1,0.1-0.1,0.2
	c-0.1,0.1-0.2,0.3-0.3,0.4c0,0.1-0.1,0.1-0.1,0.2c0,0,0,0.1,0,0.1c0,0.1-0.1,0.2-0.1,0.3c0,0.1-0.2,0.1-0.2,0.1
	c-0.2-0.1-0.4,0-0.6,0c-0.2,0-0.4,0.1-0.6,0.1c-0.2,0.1-0.4,0-0.6,0c-0.1-0.1-0.2-0.1-0.3-0.1c-0.2,0-0.3-0.1-0.4-0.1
	c-0.2-0.1-0.3,0-0.5-0.1c-0.2-0.1-0.4-0.1-0.6-0.2c-0.1,0-0.2-0.1-0.2-0.1c-0.1,0-0.1,0-0.2,0c-0.2,0-0.3-0.1-0.4-0.2
	c-0.1-0.1-0.3,0-0.4-0.2c-0.2,0-0.5,0-0.7-0.1c0,0,0-0.1,0-0.1c0.1,0,0.1-0.1,0.1-0.1c0.1,0,0.3,0,0.4,0c0.1,0.1,0.1,0.1,0.2,0.1
	c0,0,0-0.1,0-0.1c-0.1-0.1-0.2-0.1-0.2-0.3c0,0,0.1-0.1,0.1-0.1c0.1,0,0,0.1,0,0.1c0,0.2,0.2,0.3,0.3,0.4c0.2,0,0.5,0.1,0.7,0.2
	c0.2,0.1,0.5,0.1,0.7,0.2c0.2,0.2,0.5,0,0.8,0.1c0.1,0,0.2,0,0.3,0.1c0.1,0,0.1,0,0.2,0c0.1,0.1,0.3,0.1,0.4,0.2
	c0.2,0.1,0.4,0.1,0.5,0.2c0.2,0,0.5,0,0.7-0.1c0,0,0.1,0,0.1,0c0-0.1,0.1-0.1,0.1-0.2c0-0.1,0-0.1,0-0.2c0-0.1,0.1-0.2,0.2-0.3
	c0.1-0.1,0.1-0.2,0.2-0.3c0-0.2,0-0.3,0.1-0.4c0-0.1,0.1-0.1,0.1-0.2c0,0,0,0,0,0c0-0.2,0.1-0.3,0.1-0.5c0.1-0.1,0-0.3,0.1-0.5
	c0.1-0.1,0-0.2,0.1-0.2c0-0.1,0.2-0.2,0.2-0.3c0,0,0,0,0-0.1c0-0.2-0.1-0.3,0-0.5c0-0.1,0-0.3,0-0.4c0-0.1,0-0.1,0-0.2
	c-0.1-0.1-0.2-0.2-0.3-0.4v0c0-0.1,0-0.2-0.1-0.2c-0.1-0.1-0.3-0.1-0.4-0.1c-0.2,0.1-0.4,0.1-0.5,0.2c-0.1,0-0.2,0-0.3,0.1
	c0,0,0,0,0,0c0,0.1,0,0.2-0.1,0.2c0,0.1-0.1,0.1-0.1,0.2c0,0.2-0.1,0.4-0.3,0.5c-0.2,0-0.3-0.1-0.5,0c-0.1,0-0.1,0.2-0.2,0.2
	c-0.3,0-0.5,0.1-0.7-0.1c0,0-0.1-0.1-0.1-0.1c0-0.1,0.2,0,0.2-0.1c0.1-0.1,0.2-0.1,0.3-0.1c0.2,0,0.3,0,0.5,0c0.2,0,0.3-0.1,0.4-0.2
	c0.2-0.1,0.1-0.3,0.2-0.4c0,0,0-0.1,0.1-0.1c0-0.1,0.1-0.2,0.2-0.2c0.2,0,0.3,0,0.5-0.1c0.2-0.1,0.4-0.3,0.5-0.5
	c0-0.1,0.1-0.1,0.1-0.2c0-0.2,0.2-0.2,0.3-0.4c0,0,0-0.1,0-0.1c0-0.1-0.1-0.2,0.1-0.3c0.1-0.2,0.4-0.3,0.4-0.5
	c0-0.2,0.1-0.3,0.1-0.4c0-0.1,0.1-0.2,0.1-0.3c0,0,0.1-0.1,0.1,0c0,0.1,0,0.2,0,0.2c0,0.1,0,0.2,0,0.3c0,0.1,0,0.1,0,0.1
	c0.1,0.1,0.2,0,0.3,0.1c0.1,0,0.1,0,0.2-0.1c0.1,0,0.1,0,0.2-0.1c0.1-0.1,0.1-0.1,0.1-0.2c0,0,0-0.1,0-0.1c0-0.1,0-0.2,0.1-0.2
	c0.1,0,0.2,0.1,0.3,0.1c0.2,0.1,0.4,0.1,0.6,0.1c0.2-0.1,0.4-0.1,0.6-0.3c0.3-0.1,0.6-0.1,0.9-0.2c0.3,0,0.5-0.1,0.8-0.1l0.1-0.1
	c0-0.2-0.1-0.3-0.2-0.5l-0.1-0.2c0,0-0.1-0.1-0.1-0.1c-0.2-0.1-0.3-0.3-0.4-0.4c-0.1-0.1-0.2-0.1-0.3-0.2c-0.1-0.2-0.3,0-0.5-0.1
	c-0.1-0.1-0.2-0.2-0.2-0.3c0-0.1,0-0.2-0.1-0.3c0-0.3-0.4-0.4-0.4-0.6c-0.1-0.1,0-0.3-0.2-0.4c0-0.1-0.1-0.1-0.1-0.2
	c-0.1-0.1-0.3-0.2-0.3-0.3c0,0,0,0,0-0.1c0-0.1-0.1-0.1-0.1-0.1l0-0.1h-1v-0.9h1.1l0-0.1c0,0,0-0.1,0-0.1c0.1-0.1,0.2-0.1,0.4-0.1
	c0.1-0.1,0.2-0.2,0.4-0.2c0.2-0.1,0.5-0.1,0.5-0.4c-0.1-0.2-0.2-0.4-0.2-0.6c0-0.1,0.2-0.2,0.3-0.2c0,0,0.1,0,0.1-0.1
	c0.1,0,0.2-0.1,0.4-0.1c0.1,0,0.2-0.1,0.2-0.1c0.3,0,0.5-0.1,0.8-0.1c0.1-0.1,0.2-0.1,0.2-0.2c0-0.1,0-0.1,0.1-0.2
	c0.1-0.1,0.2-0.3,0.3-0.4c0.3-0.1,0.5-0.3,0.5-0.6c0.1-0.2,0.2-0.3,0.2-0.5c0.1-0.1,0.1-0.2,0.1-0.3c0-0.1,0-0.1,0.1-0.1l0-0.1
	c0,0,0,0,0-0.1c0-0.1,0.1-0.1,0.1-0.2c0,0,0,0,0,0c0-0.1,0-0.3,0.1-0.4c0.1,0,0.2-0.1,0.3-0.1c0-0.1,0.1-0.1,0-0.2
	c-0.1-0.1-0.3-0.1-0.4-0.1c0,0-0.1,0.1-0.1,0c0-0.1,0-0.1,0-0.2c0.1,0,0.1,0,0.2,0c0.1-0.1,0.1-0.2,0.1-0.3c-0.1-0.1,0-0.2-0.1-0.2
	c-0.1,0-0.1-0.1-0.2-0.1c-0.1,0-0.1,0.1-0.1,0.1c-0.2-0.2,0.1-0.3,0.1-0.5c0.1-0.1,0-0.1,0-0.2c0-0.1-0.1-0.2-0.1-0.3
	c0-0.1,0-0.3-0.1-0.4c0,0,0,0,0-0.1c-0.1-0.1-0.1-0.3-0.1-0.4c0-0.1,0-0.2-0.1-0.2c0-0.3-0.3-0.4-0.4-0.6c0,0-0.1-0.1-0.2-0.1
	c-0.1-0.1-0.3,0-0.3-0.1l-0.2-0.4c0-0.1,0.1-0.2,0.1-0.3c0.1-0.1,0.2-0.2,0.3-0.3c0-0.1,0.1-0.2,0-0.3c-0.1-0.1-0.2-0.1-0.3-0.1
	c-0.1,0-0.2,0.1-0.3,0.1c0,0-0.1,0-0.1,0c0-0.1,0.1-0.2,0.2-0.2c0-0.1,0.1-0.2,0-0.4c-0.1-0.1-0.1-0.2-0.3-0.2
	c-0.1,0-0.2,0.1-0.3,0.1c-0.1,0-0.3,0-0.4-0.2c0-0.1-0.1-0.2-0.1-0.3c-0.1-0.1-0.2-0.2-0.3-0.3c0-0.2,0.1-0.3,0.1-0.5
	c-0.1-0.2-0.4-0.1-0.4-0.3c-0.1-0.2-0.3-0.4-0.4-0.6c-0.1-0.1-0.2-0.2-0.4-0.2c0,0-0.1,0-0.1,0c-0.1-0.1-0.2-0.1-0.1-0.3
	c0-0.1,0-0.1,0.1-0.2c-0.1-0.1,0-0.3-0.1-0.4c-0.1,0-0.2-0.1-0.2-0.2l-0.1-0.1l-0.4,0.4c2.4,2.5,4.2,5.5,5.2,9l-1,0.3
	c0,0,0-0.1,0-0.1c-0.1,0.1-0.1,0.2-0.1,0.3c0,0,0,0,0,0c0,0.2,0.1,0.3,0.1,0.5c-0.1,0.1-0.3,0.2-0.3,0.4c0,0.1-0.1,0.2-0.2,0.3
	c0,0.1-0.1,0.3-0.2,0.4c-0.1,0.2-0.3,0.3-0.5,0.5c-0.1,0-0.3,0-0.4,0c-0.1,0-0.2,0.1-0.2-0.1c0-0.1,0.1-0.2,0.1-0.4
	c-0.1-0.2,0.1-0.3,0.1-0.4c0.1-0.1,0.2-0.2,0.2-0.4c-0.1-0.1-0.1-0.2-0.1-0.2c0.1-0.1,0.2-0.1,0.2-0.2c0-0.1-0.1-0.2-0.1-0.3
	c-0.1,0-0.1,0-0.2-0.1c-0.1-0.1-0.1-0.3-0.3-0.3c-0.1,0-0.1-0.1-0.1-0.1c-0.2-0.1-0.4-0.1-0.6-0.1c0,0-0.1,0-0.2,0.1
	c-0.2,0.1-0.4,0.3-0.5,0.5c0,0-0.1,0.1-0.1,0.1c-0.1,0.2-0.2,0.5-0.4,0.5c-0.2,0-0.2-0.3-0.4-0.4c-0.1-0.1-0.2-0.1-0.2-0.2
	c0,0,0,0,0,0c0,0,0-0.1,0-0.1c0-0.1,0.1-0.1,0.2-0.2c0,0,0.1,0,0.1,0.1c0,0.1,0,0.1,0,0.2c0,0,0,0,0,0c0,0.1,0.1,0.2,0.2,0.2
	c0.2,0,0.4,0,0.5-0.1c0,0,0-0.1,0-0.1c0-0.1,0-0.1,0-0.1c-0.2-0.1-0.4-0.4-0.7-0.3c-0.1,0-0.1-0.3-0.3-0.3c-0.1,0-0.1,0.1-0.2,0
	c0-0.1-0.1-0.1-0.1-0.1c-0.1-0.1,0-0.3-0.1-0.4c0-0.1-0.1-0.1-0.1-0.2c-0.2-0.2-0.4-0.3-0.6-0.4c-0.2,0-0.4-0.1-0.6-0.1
	c-0.1,0-0.1-0.1-0.3-0.1c-0.1-0.1-0.2,0-0.2,0l-0.3,0.1c1.3,2.2,2.1,4.7,2.1,7.4c0,2.5-0.6,4.9-1.9,7.1l-0.9-0.5
	c1.1-2,1.7-4.3,1.7-6.6c0-2.6-0.8-5-2-7c0,0-0.1,0-0.1,0c-0.1,0.1-0.2,0.1-0.2,0.2c-0.1,0.1-0.1,0.1-0.1,0.2c0,0,0,0.1,0,0.1
	c-0.1-0.1-0.2-0.1-0.4-0.1c-0.1,0-0.2,0-0.2,0.1c0,0.1,0.1,0.2,0.1,0.4c0.1,0.2,0.2,0.4,0.3,0.5c0,0,0,0.1-0.1,0.1
	c-0.1,0-0.3-0.1-0.4-0.2c-0.1-0.2-0.2-0.2-0.4-0.2c0-0.1,0.1,0,0.1,0c0.1,0,0.1-0.1,0.2-0.1c0,0,0-0.1,0-0.1c0-0.1-0.1-0.1-0.2-0.2
	c0-0.1-0.2-0.2-0.2-0.4c0,0,0.1,0,0.1-0.1c0.1,0,0.1-0.1,0.2-0.2c0-0.2,0-0.3,0.2-0.4c0.1-0.1,0.1-0.2,0.1-0.3
	c-0.1-0.2-0.2-0.4-0.3-0.4l0,0c-0.2,0-0.4-0.1-0.6,0.1c-0.1,0-0.2,0.2-0.2,0.2c-0.2,0.1-0.2,0.4-0.4,0.3c-0.2,0-0.3,0.1-0.5,0
	c0-0.1,0-0.2,0-0.3l-3,3l-0.7-0.7l2.4-2.4c-0.1,0-0.2-0.1-0.3,0c-0.1,0.1-0.2,0.1-0.3,0.2c-0.2,0.1-0.3,0.3-0.5,0.4
	c-0.1,0.1-0.2,0.2-0.3,0.3c0,0-0.1,0.1-0.1,0.1c-0.1,0.1-0.2,0.1-0.1,0.2c-0.1,0,0,0.1,0,0.1c0,0.1,0.1,0.1,0,0.2
	c-0.1,0.1-0.2,0.1-0.3,0.1c-0.1,0-0.2,0.1-0.3,0.1c-0.1,0-0.3,0.1-0.4,0c0-0.2-0.2-0.3-0.3-0.4c-0.2,0-0.2-0.2-0.3-0.3
	c-0.2,0-0.3-0.2-0.5-0.2c-0.1,0.2-0.4,0.2-0.5,0.3c-0.2,0.1-0.4,0-0.5,0c0,0,0-0.1,0-0.1c0.1-0.1,0.2,0,0.2-0.2c0,0,0.1,0,0.1-0.1
	c0,0,0.1-0.1,0.1-0.1c0.2-0.2,0.4-0.2,0.6-0.3c0.1-0.1,0.3-0.1,0.4-0.3c0.2-0.1,0.1-0.3,0.2-0.5c0-0.1,0.1-0.3,0-0.4
	c0,0,0-0.1-0.1-0.1c0-0.1-0.1-0.1-0.2-0.1c-0.2,0-0.3,0.1-0.4,0.2c0,0,0,0,0,0c-0.1,0.1-0.4,0.1-0.5,0.3c-0.2,0.1-0.3,0.3-0.5,0.5
	c0,0.1-0.1,0.1,0,0.2c0,0,0,0,0,0.1c0,0,0,0,0,0l-0.3,1c-0.6-0.2-1.3-0.3-1.9-0.2C88.4,44.9,88.6,45,88.5,45.2 M96.5,57.6
	c0.1,0,0.1-0.2,0.3-0.2l0,0.1c0,0,0.1,0.1,0.1,0.1c0,0.1-0.2,0.1-0.2,0.3c0.1,0.1,0.2,0.1,0.3,0c0.1,0,0.3-0.1,0.4,0
	c0.1,0,0.2-0.1,0.3,0c0.2-0.1,0.3,0.1,0.4,0.1c0.1,0.1,0.3,0.2,0.4,0.3c0,0.1-0.1,0.1-0.1,0.2c-0.1,0.1-0.1,0.3-0.3,0.3
	c-0.2,0-0.2-0.1-0.3-0.3c0-0.1-0.1-0.2-0.2-0.2c-0.2,0-0.5,0.1-0.7,0c-0.1,0-0.2,0-0.2-0.1c0,0,0-0.1,0-0.1l-0.1-0.1
	C96.4,57.9,96.3,57.7,96.5,57.6 M94.8,59.3c0.1,0,0.1,0,0.2,0.1c0.1,0.1-0.1,0.2-0.1,0.3c-0.1,0-0.2,0-0.2,0c0-0.1,0-0.1,0-0.2
	C94.6,59.4,94.7,59.3,94.8,59.3 M93.9,60.6c0.1,0,0.1-0.1,0.1-0.1c0-0.2-0.1-0.2-0.1-0.4c0.1-0.1,0.1-0.2,0.2-0.3c0,0,0.1,0,0.1,0.1
	c0,0-0.1,0.1,0,0.1c0.1,0.1,0.2,0.1,0.3,0.1c0.1-0.1,0.3-0.2,0.4-0.3c0.1,0,0.1,0,0.2,0c0.1-0.1,0.2,0,0.3-0.1c0.2,0,0.3,0,0.5,0
	c0.1,0,0.1,0,0.1,0.1c0,0.1,0,0.3-0.1,0.3c-0.2,0.2-0.5,0.2-0.7,0.2c-0.2,0-0.3,0.1-0.4,0.2c-0.1,0.1-0.2,0.1-0.2,0.1
	c-0.2,0.1-0.3,0.2-0.5,0.3c0,0.1-0.1,0.1-0.1,0.3c0,0,0.1,0.1,0,0.1c-0.1,0.1-0.2,0.2-0.3,0.2c0,0-0.1,0.1-0.1,0
	c-0.1-0.2,0.2-0.2,0.2-0.3c0-0.1,0.1-0.3,0-0.4C93.8,60.8,93.9,60.7,93.9,60.6"/>
<path class="st1" d="M92.4,64.1c-0.1,0-0.2-0.1-0.4-0.1c-0.2,0-0.4,0.1-0.6,0c0,0,0-0.1,0-0.1c0,0,0,0,0,0c-0.1-0.1-0.2-0.2-0.2-0.4
	c0-0.1-0.1-0.2-0.3-0.2l-0.3,0c-0.2,0.1-0.3,0.2-0.5,0.1c-0.1,0-0.3,0-0.5,0c-0.1,0-0.2,0-0.3,0.1c-0.1,0-0.2,0-0.3,0.1
	c-0.2,0-0.4,0.2-0.5,0.4c0,0,0,0,0,0c0,0.1-0.1,0-0.2,0.1c-0.1,0-0.2,0.1-0.3,0.1c-0.1,0.1-0.2,0-0.3,0c-0.2,0-0.4-0.1-0.7-0.1
	c-0.1,0.1-0.3,0.2-0.4,0.3c0,0.1-0.1,0.1-0.2,0.2c0.7,0.1,1.4,0.2,2.1,0.2C89.8,64.7,91.1,64.4,92.4,64.1"/>
<path class="st1" d="M105.9,41.6c0,0.1,0,0.3,0,0.4c-0.1,0.1-0.2,0.2-0.2,0.3c0,0.1,0,0.1,0.1,0.2c0.1,0,0.2,0.1,0.3,0.1
	c0.1,0.1,0.3,0.2,0.4,0.1c0.1,0,0.2,0.1,0.3,0.2c0.1,0.1,0.2,0.3,0.3,0.3c0.1,0.1,0.2,0.1,0.3,0.2c-0.3-0.7-0.7-1.4-1-2.1
	C106.2,41.5,105.9,41.3,105.9,41.6"/>
<path class="st1" d="M103.5,74.1C103.5,74.1,103.5,74.1,103.5,74.1l0.1-0.2c0-0.1,0-0.3,0-0.4c0-0.2,0.2-0.2,0.3-0.4
	c0.1-0.1,0.1-0.2,0.1-0.4c0-0.1,0-0.3-0.1-0.4l-0.1-0.2c0-0.1-0.1-0.3-0.3-0.4c0-0.2,0.2-0.3,0.3-0.5c0.2-0.2,0.2-0.3,0.3-0.5
	c0.1-0.1,0.1-0.2,0.2-0.2c0.1-0.1,0.1-0.3,0.3-0.4c0-0.1,0.1-0.1,0.1-0.1c0.1-0.1,0.1-0.3,0-0.4c-0.1-0.2-0.3-0.3-0.3-0.5
	c-0.1-0.1-0.2-0.2-0.3-0.3c-0.1-0.1-0.1-0.2-0.3-0.2c-0.1-0.1-0.3,0-0.3-0.1c-0.2-0.1-0.3-0.2-0.5-0.4c-0.2-0.2-0.1-0.5-0.1-0.8
	c0-0.1,0.1-0.2,0.2-0.3c0,0,0-0.1,0-0.2c-2.1,1.9-4.5,3.4-7.2,4.4C98.4,72.1,101,73,103.5,74.1"/>
<path class="st1" d="M84.6,65.6c-0.1,0.1-0.2,0.2-0.4,0.3c0,0.2-0.2,0.1-0.3,0.3c-0.1,0.1-0.1,0.3-0.1,0.4c0,0.1-0.1,0.1-0.1,0.2
	c-0.1,0.1-0.1,0.3-0.1,0.4c-0.2,0.2-0.5,0.1-0.5,0.4c0.1,0.3,0.2,0.5,0.4,0.8c0.1,0.1,0.1,0.2,0.2,0.3c1.4,0.2,2.9,0.4,4.5,0.7v-3.8
	c-1.1,0-2.1-0.2-3.1-0.4l-0.3,0.1C84.8,65.5,84.6,65.5,84.6,65.6"/>
<path class="st1" d="M104.5,38.9c0,0.1,0.1,0.2,0.2,0.2c0,0,0-0.1,0.1-0.1c-0.1-0.1-0.2-0.2-0.3-0.3
	C104.5,38.7,104.4,38.8,104.5,38.9"/>
<path class="st1" d="M103.8,35.3L103.8,35.3c-0.1-0.1-0.2-0.2-0.2-0.2c0-0.1-0.1-0.3,0-0.4c0.1,0,0.3,0,0.4-0.1c0-0.1,0.1-0.1,0-0.2
	c-0.1-0.1-0.1-0.2-0.2-0.2c-0.1,0-0.1,0.1-0.2,0.2c0,0.1,0,0.1,0,0.2h0c-0.1-0.1-0.1-0.3-0.2-0.4c-0.1,0-0.1-0.1-0.1-0.2
	c0,0,0-0.1,0-0.1c0,0,0.1-0.1,0-0.2c-0.1-0.1-0.1-0.4-0.3-0.5c-0.2-0.1-0.4-0.2-0.5-0.4c-0.1,0-0.1,0-0.1,0c-0.1,0-0.2,0-0.3,0.1
	c-0.2,0-0.2-0.2-0.3-0.3c-0.1-0.1-0.1-0.3-0.3-0.4c0-0.2-0.2-0.3-0.3-0.4c-0.2-0.1-0.2-0.2-0.4-0.4c-0.1-0.2-0.3-0.2-0.4-0.4
	c-0.1-0.1-0.1-0.1-0.2-0.1c-0.1,0-0.2,0.1-0.3,0.1c0,0.2,0.2,0.3,0.3,0.5c0.1,0.2,0.2,0.4,0.4,0.5c-0.1,0.2,0.2,0.2,0.1,0.4
	c0,0-0.1,0-0.1,0c0-0.1-0.1-0.1-0.2-0.1c0,0-0.1,0.1-0.1,0c-0.2-0.1-0.1-0.3-0.2-0.4c-0.1-0.1-0.2-0.1-0.3-0.2c0,0-0.1,0-0.1-0.1
	l0.1-0.1c0-0.1-0.1-0.2-0.2-0.3c-0.1-0.1-0.2,0.1-0.3,0.1c-0.1,0-0.1,0.1-0.2,0.2c0,0.1,0.2,0.1,0.2,0.1c0.1,0,0.1,0,0.2,0.1
	c0,0.1-0.1,0-0.1,0.1c-0.1,0-0.2-0.1-0.3-0.1c-0.1,0-0.3-0.1-0.4,0.1c-0.1,0.1,0,0.3-0.1,0.3c-0.1-0.1,0-0.2-0.1-0.3
	c0-0.1-0.1-0.1-0.1-0.2c-0.2,0-0.2,0.2-0.3,0.3c0,0,0,0.1,0.1,0.2c0.2,0.1,0.4,0.2,0.6,0.3c0.1,0,0.1,0,0.2,0c0-0.1,0.1,0,0.1-0.1
	c0.1-0.1,0.3,0,0.4,0c0.1,0,0.3,0.1,0.4,0c0.2,0.1,0.2,0.3,0.4,0.3c0,0,0,0,0,0c0,0,0-0.1,0-0.1c0.1,0,0,0.1,0.1,0.1
	c0.1,0.1,0,0.3,0.1,0.3c0.2,0.1,0.2,0.3,0.3,0.4c0,0.1,0.1,0.2,0.1,0.3l0,0c0,0,0,0.1,0,0.1c0.8,0.6,1.6,1.2,2.3,1.9L103.8,35.3z"/>
<path class="st1" d="M97.7,42.9c0.1-0.1,0.2,0,0.4,0c0.1,0,0.1,0,0.2-0.1c0-0.1,0.1-0.2,0-0.3c0-0.1-0.1-0.2,0.1-0.2l-0.1,0
	l-0.6,0.6C97.6,42.9,97.7,42.9,97.7,42.9"/>
<path class="st1" d="M97.1,41.5c0,0-0.1,0-0.1,0c0,0,0-0.1,0-0.1c0.1,0,0.1-0.1,0.1-0.2c0-0.1-0.1,0-0.2,0c-0.1,0-0.3,0.1-0.4,0.2
	c-0.2,0.1-0.3,0.3-0.5,0.4c0,0.1-0.1,0.1-0.2,0.1c-0.1,0.1-0.2,0.2-0.3,0.3c0,0.1,0.1,0.1,0.1,0.1c0.1,0,0.1,0.1,0.2,0.1
	c0.1,0,0.1,0.1,0.2,0.1c0.2,0,0.3-0.2,0.4-0.2c0,0,0.1,0,0.1,0c0,0,0,0.1,0,0.1l0.8-0.8l-0.1-0.1C97.3,41.5,97.2,41.4,97.1,41.5"/>
<path class="st1" d="M86.2,55.4C86.1,55.4,86.1,55.3,86.2,55.4c-0.1,0-0.1,0-0.1,0C86,55.5,86.1,55.5,86.2,55.4
	C86.2,55.5,86.2,55.4,86.2,55.4"/>
<path class="st1" d="M92.5,64.1c0.2,0,0.5,0,0.6-0.2c0,0,0,0,0,0c0,0,0,0,0,0c-0.2,0.1-0.5,0.2-0.7,0.2
	C92.4,64.1,92.5,64.1,92.5,64.1"/>
<path class="st1" d="M54.2,53.2h-0.2c0.1,0.1,0.1,0.2,0.2,0.3C54.2,53.4,54.2,53.3,54.2,53.2"/>
<polygon class="st1" points="74.4,50.6 72.4,50.6 72.8,51.6 74.2,51.6 "/>
<path class="st1" d="M108.7,47.7C108.7,47.7,108.7,47.7,108.7,47.7C108.7,47.7,108.7,47.7,108.7,47.7L108.7,47.7z"/>
<path class="st1" d="M97.4,42.9C97.4,42.9,97.4,42.9,97.4,42.9c-0.2,0.1-0.3,0.3-0.5,0.5c0,0.1-0.1,0.1-0.1,0.2l0.7-0.7
	C97.5,42.9,97.5,42.9,97.4,42.9"/>
<path class="st1" d="M95.7,43.5c0.1,0,0.1-0.1,0.1-0.1c0.1-0.1,0.1-0.2,0.2-0.2c0.1-0.1,0.2-0.2,0.3-0.3c0,0,0.1,0,0.1-0.1
	c0.1-0.1,0.2-0.2,0.3-0.3c0,0,0-0.1,0-0.1l-1.1,1.1C95.6,43.5,95.6,43.5,95.7,43.5"/>
<polygon class="st1" points="105.3,33.8 103.8,35.3 104.4,36.1 105.4,35.1 "/>
<path class="st1" d="M75.5,45.9c0.1,0,0.1-0.1,0.1-0.1c-0.2,0-0.4,0-0.5,0.2l0,0c0,0,0,0.1,0,0.1l0.2-0.1
	C75.3,45.9,75.4,46,75.5,45.9"/>
<path class="st1" d="M108.2,45.3c-0.1-0.2-0.1-0.5-0.2-0.7c0-0.1-0.1-0.2-0.1-0.3c-0.1-0.2-0.1-0.4-0.3-0.6c0-0.1-0.1-0.1-0.2-0.2
	c0.3,0.7,0.5,1.4,0.8,2.1c0,0,0-0.1,0.1-0.1L108.2,45.3z"/>
<path class="st1" d="M106.3,41.1c-0.1-0.2-0.2-0.4-0.4-0.6c-0.1-0.1-0.1-0.3-0.2-0.4c-0.1-0.2-0.3-0.4-0.4-0.6
	c0-0.1-0.1-0.1-0.1-0.2c-0.1-0.1-0.2-0.3-0.4-0.3l0,0c0.6,0.8,1.1,1.6,1.6,2.4c0,0,0,0,0,0C106.5,41.3,106.4,41.2,106.3,41.1"/>
<path class="st1" d="M89,21.7l0,0.5l0.1,0c0,0,0,0,0,0L89,21.7C89.1,21.6,89.1,21.7,89,21.7"/>
<polygon class="st1" points="88.8,26.4 89.1,26.9 89.1,26.1 "/>
<polygon class="st1" points="105.4,35.1 109,31.5 108.8,30.3 105.3,33.8 "/>
<path class="st1" d="M113.3,39.5c0.1,0.3,0.2,0.5,0.4,0.8l0.8-0.8c0,0,0,0,0,0c-0.1-0.2-0.1-0.3-0.2-0.5L113.3,39.5z"/>
<path class="st1" d="M102.5,26.6c-0.2-0.1-0.4-0.2-0.6-0.3c0,0,0,0-0.1,0.1l-1.2,0.5c0.4,0.2,0.9,0.4,1.3,0.7L102.5,26.6z"/>
<path class="st1" d="M99.8,42.4l0.1,0C99.9,42.4,99.9,42.4,99.8,42.4L99.8,42.4z"/>
<polygon class="st1" points="88.3,42.4 88.1,42.3 88.1,42.6 "/>
<path class="st1" d="M99,42.6l-0.4-0.4l-0.1,0.2c0.1,0.2,0.3,0.3,0.4,0.5L99,42.6z"/>
<path class="st1" d="M99.6,43.6l-0.1-0.4l-0.3,0.1c0.1,0.1,0.2,0.3,0.3,0.4C99.5,43.6,99.5,43.5,99.6,43.6"/>
<path class="st1" d="M84.1,56.1C84.1,56.1,84.1,56.1,84.1,56.1l0.2-0.3l-0.7-0.7l-0.2,0.2l0.1,0.6L84.1,56.1z"/>
<path class="st1" d="M87.9,58.7l-0.2,0.1c0,0,0,0,0,0.1c0.1,0,0.2,0,0.3,0L87.9,58.7z"/>
<polygon class="st1" points="108.1,69.8 106.2,67.8 105.8,68.8 107.3,70.4 "/>
<polygon class="st1" points="105.1,67.9 105,68 105.1,68.1 "/>
<path class="st1" d="M108.7,47.7C108.7,47.7,108.7,47.7,108.7,47.7c0.1,0.5,0.2,1.1,0.2,1.6c0,0,0,0,0,0l0.8-1.8c0,0,0,0,0,0
	L108.7,47.7z"/>
<path class="st1" d="M75,46c0.2-0.1,0.3-0.2,0.5-0.2c0,0.1,0,0.1-0.1,0.1c-0.1,0.1-0.2,0-0.3,0L75,46c-0.4,1-0.7,2-0.9,3l1,0.2
	c0.2-1.5,0.7-2.9,1.5-4.2c0,0,0,0-0.1,0l0,0l-1.2,0.2C75.3,45.4,75.1,45.7,75,46L75,46z"/>
<polygon class="st1" points="72.4,50.6 70.8,50.6 70.4,51.6 72.8,51.6 "/>
<path class="st1" d="M75.4,54.1c0-0.1-0.1-0.2-0.1-0.3l-1,0.2c0,0.3,0.1,0.5,0.2,0.8l0.8-0.5C75.2,54.2,75.3,54.1,75.4,54.1"/>
<polygon class="st1" points="79.2,51.6 79.2,50.6 74.4,50.6 74.2,51.6 "/>
<polygon class="st1" points="83.9,45.9 83.6,45.6 82.3,45.7 82.3,45.7 83.2,46.6 "/>
<path class="st1" d="M86.3,45.1c0.3-0.1,0.6-0.2,0.8-0.2c0,0,0-0.1,0.1-0.1l-0.8-0.7c-0.1,0-0.3,0.1-0.4,0c0,0,0,0,0,0
	c0,0-0.1,0-0.1,0L86.3,45.1z"/>
<path class="st1" d="M88.6,16C69,16,53.1,31.8,53.1,51.2c0,0.1,0,0.3,0,0.4c0,0.1,0,0.2,0,0.2c0.3,0.5,0.6,0.9,1,1.4h0.2
	c0-0.5-0.1-1.1-0.1-1.6h2.9h3c0,2.8,0.5,5.6,1.3,8.2l-0.3,0c-0.1,0.1-0.3,0-0.4,0c0,0,0,0,0,0c-0.1-0.1-0.1-0.2-0.2-0.2
	c-0.1-0.1-0.1-0.3-0.3-0.3c-0.2,0-0.3,0-0.4,0.1c-0.1,0.1-0.3,0-0.4,0.1c0,0-0.1,0.1,0,0.1c0,0,0.1,0.1,0.1,0.2c0,0,0,0,0,0
	c0,0,0,0.1-0.1,0.1c-0.1,0-0.1,0.1-0.2,0.1c-0.2,0-0.3,0-0.4,0.1c-0.1,0-0.1,0-0.2,0c-0.1-0.1-0.1-0.2-0.2-0.3c0.1,0,0.1,0,0.2,0
	c0-0.1-0.1-0.3-0.1-0.4C58.3,59.1,58.1,59,58,59c-0.2,0.1,0,0.3-0.1,0.3c-0.1,0-0.1-0.2-0.3-0.1c0,0-0.1,0.1-0.1,0.1
	c0.1,0.1,0.1,0.2,0.2,0.3c0,0,0.1,0,0.1,0c0,0,0.1-0.1,0.1-0.1c0.1,0.1,0.3,0,0.4,0.1c0,0,0,0,0,0c-0.1,0-0.1,0.1-0.2,0
	c-0.1,0-0.2,0-0.3,0c1.1,2,2.2,3.8,3.4,5c0,0,0,0,0.1,0c0,0,0-0.1,0-0.1c-0.1-0.1,0-0.3-0.2-0.4c0,0,0-0.1,0.1-0.1
	c0.1,0,0.1,0.1,0.1,0.2c0,0.2,0.1,0.4,0.1,0.6c0,0,0,0,0,0c0.1,0.1,0.3,0.2,0.4,0.3c0.1,0,0.3-0.1,0.4-0.1c0.1,0.1,0.1,0.1,0.1,0.2
	c0,0,0,0.1,0,0.2c0.4,0.2,0.8,0.5,1.2,0.6l1.3,0.5l1.8,0.7l2.7,1c0.5,0,0.9-0.1,1.4-0.1c0.5,0,1-0.1,1.5-0.1c0.6,0,1.2,0,1.8,0
	c0.5,0,1,0,1.6,0c0,0,0.1,0,0.1,0c0.6,0,1.2,0,1.8,0.1c-1-0.7-2-1.5-2.9-2.4l4.1-4.1c1.8,1.7,4,2.9,6.5,3.5l1.2-0.7
	c0.1-0.1,0.1-0.1,0.2-0.1c-2.7-0.4-5.2-1.7-7.2-3.5l4.1-4.1c1.2,1.1,2.7,1.8,4.3,2c0,0,0,0,0-0.1l0.2-0.1l0.1,0.2c0.1,0,0.2,0,0.3,0
	l0.4-0.1c0,0,0,0,0,0.1c0.3,0,0.6,0,0.8-0.1c0,0,0-0.1,0-0.1l0.3-0.4c0,0,0,0,0,0l0-0.1c0,0,0,0,0,0.1c0,0-0.4-0.3-0.6-0.4
	c0,0-0.1,0-0.1-0.1c-0.2,0-0.4,0.1-0.6,0.1c-1.7,0-3.2-0.6-4.4-1.7L83.5,56l-0.1-0.6l0,0c-0.3-0.4-0.5-0.7-0.8-1.1l0,0L82,55.2
	c0.2,0.3,0.4,0.6,0.7,0.9l-4.1,4.1c-1.6-1.7-2.7-3.8-3.2-6.2c-0.1,0.1-0.1,0.1-0.2,0.1l-0.8,0.5c0.6,2.4,1.8,4.6,3.4,6.3l-4.1,4.1
	c0,0,0,0,0,0c0,0-0.1,0-0.1,0c-0.1,0-0.1-0.1-0.2-0.1c-0.1,0-0.2,0-0.2,0c-0.2,0-0.4,0-0.7,0.1c-0.1-0.1,0.1-0.2,0.1-0.4
	c0.1-0.1,0.1-0.2,0.2-0.2c0.1-0.1,0.2-0.1,0.3-0.1c0.1,0,0.2-0.1,0.2-0.2c0-0.1,0-0.2,0-0.2c0-0.1,0-0.2,0-0.2
	c-0.1-0.2,0-0.4-0.1-0.6c0,0,0,0,0,0c0-0.1,0-0.2,0-0.3c0-0.2-0.3-0.3-0.3-0.5l0-0.1c-0.1-0.2-0.3-0.3-0.3-0.5
	c-0.1-0.2-0.1-0.4-0.1-0.6c0.1-0.2,0-0.4,0-0.6c0-0.1,0-0.1,0-0.2c0,0-0.1-0.1,0-0.1c0.1-0.2,0.4-0.1,0.4-0.3c0.1,0,0-0.1,0.1-0.2
	c0.1,0,0.1,0,0.2-0.1c0,0,0,0,0-0.1c0,0,0-0.1-0.1-0.1c-0.1-0.1-0.2,0.1-0.3,0.1c-0.1,0-0.1-0.2-0.2-0.2c0,0,0,0,0,0.1
	c0,0,0,0.1,0,0.1c0,0,0,0,0,0c0,0.1-0.1,0.1-0.1,0.1c0,0,0-0.1,0-0.1c0-0.1,0-0.1,0-0.2c0.1-0.1,0.1-0.2,0.1-0.2
	c0-0.1,0-0.2-0.1-0.2c0,0-0.1,0-0.1-0.1c-0.1,0-0.1-0.1-0.1-0.1c0-0.1,0-0.1-0.1-0.1c0-0.1-0.1-0.2-0.1-0.3c0,0,0.1,0,0.1,0
	c0,0,0.1,0,0.1,0c0,0,0.1-0.1,0-0.1c-0.1-0.1-0.2-0.1-0.3-0.1c0-0.1-0.1-0.1-0.1-0.2c0,0,0-0.1,0-0.1c0-0.1,0.1,0,0.1-0.1
	c0-0.2-0.1-0.3-0.1-0.5c-0.1,0-0.1-0.2-0.2-0.1c-0.1,0-0.1,0.1-0.1,0.1c-0.2-0.1-0.3,0.3-0.5,0.1c0-0.1,0-0.1,0.1-0.2
	c0-0.1,0.1-0.1,0.1-0.1c0.1,0,0.3,0.1,0.4-0.1c0.1-0.1-0.1-0.2-0.1-0.4c-0.2-0.2-0.3-0.4-0.5-0.5c0-0.1-0.1-0.1-0.1-0.2
	c-0.1,0-0.1-0.1-0.2-0.1c-0.1-0.1-0.1-0.1-0.2-0.2c0,0,0-0.1-0.1-0.1c-0.1,0-0.1-0.1-0.1-0.2c0-0.2,0.1-0.3,0.1-0.4
	c0.1-0.2-0.2-0.4-0.2-0.6c-0.1-0.2,0-0.3,0-0.5c0-0.1,0.1-0.2,0.2-0.3c0.2-0.1,0.5,0,0.7-0.1c0.1,0,0.3-0.1,0.3-0.3
	c0-0.1,0-0.1,0-0.2c-0.1-0.3,0-0.5,0.1-0.8c0,0,0-0.1,0-0.1c0.1,0,0.3,0.1,0.4,0.1c0.1,0,0.3,0.1,0.4,0l0.2-0.1c0-0.1,0-0.2,0.1-0.3
	l0-0.1h-2.4l0,0.1c0,0.2-0.1,0.3-0.1,0.5c-0.1,0.2-0.4,0.2-0.4,0.5c0,0.3-0.2,0.5-0.2,0.8c0,0.1-0.2,0.2-0.1,0.4c0,0.1,0,0.1,0,0.2
	c0,0.1,0,0.2,0.1,0.3c0.1,0.1,0.3,0.1,0.3,0.3c0,0.2-0.1,0.3-0.2,0.4c-0.2,0.1-0.4,0.2-0.6,0c-0.1-0.1-0.2-0.2-0.4-0.2
	c-0.1,0-0.1-0.1-0.2-0.1c-0.2-1-0.3-2.1-0.3-3.1h2.3l0.4-0.9h-2.7c0.2-5.2,2.3-9.9,5.7-13.4l4.2,4.2c-1,1.1-1.9,2.3-2.6,3.7l1.2-0.2
	l0,0c0,0,0,0,0.1,0c0.6-1,1.3-2,2.1-2.8l3.5,3.5c0,0,0,0,0,0l1.3-0.1l-4.2-4.2c2.3-2.1,5.4-3.4,8.6-3.5v4.4l0.2,0.1l-0.2,0.2v1.1
	c-0.7,0-1.3,0.2-2,0.4c0,0,0,0,0,0c0.1,0.1,0.2,0,0.4,0l0.8,0.7c0,0,0,0.1-0.1,0.1c0.4-0.1,0.8-0.1,1.3-0.1c0,0,0,0,0,0
	c0,0,0-0.1,0.1-0.3c0.1-0.3,0.2-0.6,0.2-0.6l0.4,0c0.1,0.1,0.2,0.1,0.3,0.1c0.2,0.1,0.4,0,0.6,0.1c0.1,0,0.3,0,0.4,0.1
	c0.1,0,0.1-0.1,0.1-0.1c-0.5-0.1-1-0.2-1.5-0.2v-5.8c3.3,0.2,6.2,1.5,8.5,3.5l-0.2,0.2l0.8,0.6l0.1-0.1c0.1,0.1,0.1,0.1,0.2,0.2
	l0.1-0.2l0.4,0.4l-0.1,0.3c0.1,0.1,0.2,0.2,0.2,0.3l0.3-0.1l0.1,0.4c-0.1,0-0.1,0-0.2,0c0.2,0.2,0.3,0.4,0.5,0.7c0,0,0.1,0,0.1,0
	c0,0,0.1,0,0.1-0.1l0.8-0.3c-0.3-0.5-0.6-1-1-1.4l-0.1,0l0-0.1c-0.2-0.3-0.5-0.6-0.8-0.9l4.2-4.2c0.4,0.4,0.8,0.9,1.2,1.4
	c0,0,0-0.1,0-0.1c0-0.1,0-0.1-0.1-0.1c-0.1-0.2-0.3-0.3-0.4-0.5c0-0.1-0.1-0.1-0.1-0.2c-0.1-0.1-0.2-0.2-0.3-0.3
	c0,0-0.1-0.2-0.4-0.4c-0.7-0.9-2.3-2.7-2.3-2.7c0,0,0-0.1,0.1-0.3c0,0,0,0,0,0c-0.7-0.5-1.4-1-2.2-1.4c-0.2,0-0.5,0-0.5,0l0,0
	c0,0-0.1-0.2-0.2-0.4c-2.8-1.4-5.8-2.2-9-2.3v-3l-0.4-0.5l0.4-0.3V24c4,0.1,8,1,11.5,2.8l1.2-0.5c0,0,0,0,0.1-0.1
	c-3.9-2.1-8.3-3.2-12.8-3.3v-0.9c0,0,0,0,0,0l-0.1,0l0-0.5c0,0,0.1,0,0.1,0v-4.6c9,0.1,17.2,3.8,23.3,9.6l-3.6,3.6l0.2,1.2l4.1-4.1
	c5.9,6,9.7,14.2,9.8,23.3h-6c-0.1-3.9-0.9-7.6-2.6-11.1c0,0,0,0,0,0l-0.8,0.8c1.5,3.3,2.2,6.8,2.3,10.4H110c0-1-0.1-2-0.3-3
	l-0.8,1.8c0,0,0,0,0,0c0,0.4,0.1,0.8,0.1,1.2h-4.2l-0.1,0.9h4.3c-0.1,5.2-2.1,9.9-5.4,13.4c-0.1,0.4-0.3,1.3-0.4,1.9
	c0,0,0,0.1,0,0.1c0.1-0.1,0.3-0.2,0.4-0.4L105,68l0.2-0.1l-0.1,0.2l0.7,0.7l0.4-1l-2-2c3.5-3.8,5.7-8.8,5.8-14.3h5.9
	c-0.1,7.2-2.9,13.7-7.6,18.5l-0.3-0.3l-0.8,0.6l0.4,0.4c-1.3,1.2-2.7,2.3-4.1,3.3l0,0.1c0.4,0.2,0.7,0.3,1.1,0.5
	c1.4-0.9,2.6-2,3.8-3.1l4.2,4.2c-0.7,0.7-1.4,1.4-2.2,2c0.3,0.2,0.6,0.4,1,0.6C119.1,71.7,124,62,124,51.2
	C124,31.8,108.1,16,88.6,16 M54.2,50.6c0.1-9,3.9-17.2,9.8-23.3l4.2,4.2c-4.9,5-7.9,11.7-8.1,19.1H54.2z M67,54.3
	c-0.2,0-0.4,0-0.6,0.2c-0.2,0.2-0.2,0.6-0.4,0.8c-0.1,0.1-0.1,0.1-0.2,0.2c-0.1,0.1-0.1,0.1-0.2,0.2c-0.1,0.1-0.2,0.2-0.2,0.4
	c-0.1,0.1-0.1,0.3-0.1,0.4c-0.1,0.1-0.2,0.2-0.2,0.3c-0.1,0.1,0,0.2-0.1,0.3c0,0,0,0.1,0,0.1c0,0.1,0,0.1,0,0.2
	c0.1,0.2,0,0.4-0.1,0.6c0,0.1,0,0.1,0,0.2c0,0.2,0.2,0.3,0.1,0.5c0,0,0,0.1,0,0.1c0,0.1-0.1,0.2-0.1,0.4c0,0.1,0,0.2,0,0.2
	c-0.1,0.1-0.3,0.2-0.4,0.2l-0.3,0c0,0-0.1,0-0.1,0c0,0,0,0,0,0c-0.2,0.1-0.5,0.1-0.7,0.1c-0.1,0-0.3,0-0.4,0l-0.1,0
	c-0.9-2.6-1.3-5.3-1.4-8.2h5.9c0,0.9,0.1,1.9,0.2,2.8L67,54.3z M67.1,50.6h-5.9c0.1-7.1,3.1-13.6,7.7-18.3l4.2,4.2
	C69.5,40.2,67.3,45.1,67.1,50.6 M88.1,36.9c-3.6,0.1-6.9,1.5-9.4,3.8l-4.2-4.2c3.6-3.3,8.3-5.4,13.5-5.5V36.9z M88.1,30
	c-5.5,0.1-10.5,2.3-14.3,5.8l-4.2-4.2c4.8-4.6,11.3-7.4,18.5-7.6V30z M88.1,23c-7.5,0.1-14.2,3.1-19.2,7.9l-4.2-4.2
	c6.1-5.8,14.3-9.5,23.4-9.6V23z M89.1,31c5.1,0.1,9.8,2.2,13.4,5.5l-4.2,4.2c-2.4-2.3-5.7-3.7-9.2-3.8V31z M113.3,75l-4.2-4.2
	c4.8-5,7.8-11.8,7.9-19.2h6C122.9,60.6,119.2,68.9,113.3,75"/>
<path class="st1" d="M81.7,54.7c0.1,0.2,0.2,0.3,0.3,0.5l0.6-0.9L81.7,54.7z"/>
<path class="st1" d="M89.5,58.7C89.5,58.8,89.6,58.8,89.5,58.7c0.1,0.1,0.3,0.1,0.4,0l-0.1-0.5c0,0,0,0,0,0L89.5,58.7z"/>
<path class="st1" d="M93.1,63.8c-0.1,0.2-0.4,0.2-0.6,0.2c0,0-0.1,0-0.1,0c-1.3,0.4-2.5,0.6-3.9,0.6c-0.7,0-1.4-0.1-2.1-0.2
	c-0.1,0-0.1,0-0.2,0.1L85,65.2c1,0.2,2,0.4,3.1,0.4v3.8c0.3,0.1,0.7,0.1,1.1,0.2v-4c1.9-0.1,3.8-0.5,5.5-1.4l-0.5-0.9
	C93.9,63.5,93.5,63.7,93.1,63.8C93.1,63.8,93.1,63.8,93.1,63.8C93.1,63.8,93.1,63.8,93.1,63.8"/>
<path class="st1" d="M103.6,74.1L103.6,74.1C103.5,74.1,103.5,74.1,103.6,74.1C103.5,74.1,103.5,74.1,103.6,74.1"/>
<path class="st1" d="M94.1,70.8c0.6,0.2,1.2,0.3,1.8,0.5c2.7-1,5.1-2.5,7.2-4.4c0,0,0-0.1,0-0.1c0.1-0.5,0.3-1.5,0.4-1.9
	C101.1,67.7,97.8,69.8,94.1,70.8"/>
<path class="st1" d="M88.3,58.9c0.1,0,0.2,0,0.2,0c0.1,0,0.1,0,0.2,0c0,0,0,0,0-0.1L88.3,58.9z"/>
<path class="st1" d="M100.2,57.8l0.9,0.5c1.2-2.2,1.9-4.6,1.9-7.1c0-2.7-0.8-5.3-2.1-7.4l-0.8,0.3c0,0.1-0.1,0.1-0.1,0.1
	c0,0-0.1,0-0.1,0c1.3,2,2,4.4,2,7C101.9,53.5,101.3,55.8,100.2,57.8"/>
<path class="st1" d="M98.3,32.6L98.3,32.6c0,0,0.3,0,0.5,0c-0.2-0.1-0.4-0.2-0.6-0.3C98.3,32.4,98.4,32.6,98.3,32.6"/>
<path class="st1" d="M104.8,39c0.2,0,0.3,0.2,0.4,0.3c0,0.1,0.1,0.1,0.1,0.2c0.2,0.2,0.3,0.4,0.4,0.6c0.2,0.1,0.1,0.3,0.2,0.4
	c0.1,0.2,0.3,0.4,0.4,0.6c0.1,0.1,0.1,0.2,0.1,0.3c0,0,0,0,0,0c0.4,0.7,0.7,1.4,1,2.1c0.1,0.1,0.1,0.1,0.2,0.2
	c0.1,0.2,0.2,0.4,0.3,0.6c0,0.1,0.1,0.2,0.1,0.3c0.1,0.2,0.1,0.5,0.2,0.7l0,0.2c0,0,0,0.1-0.1,0.1c0,0,0,0.1,0,0.1l1-0.3
	c-1-3.5-2.8-6.5-5.2-9l0.4-0.4l-0.6-0.8l-0.5,0.5c-0.7-0.7-1.5-1.3-2.3-1.9c0,0,0,0,0,0c0,0.1,0,0.3-0.1,0.3c0,0,1.6,1.8,2.3,2.7
	c0.2,0.3,0.4,0.4,0.4,0.4c0.1,0.1,0.2,0.2,0.3,0.3c0,0.1,0.1,0.1,0.1,0.2c0.2,0.1,0.3,0.3,0.4,0.5c0,0,0.1,0.1,0.1,0.1
	c0,0,0,0.1,0,0.1C104.6,38.7,104.7,38.8,104.8,39L104.8,39"/>
<polygon class="st1" points="103.7,51.5 104.6,51.5 104.8,50.6 103.7,50.6 "/>
<path class="st1" d="M89.8,58.3C89.8,58.2,89.8,58.2,89.8,58.3l-0.1-0.5c-0.2,0-0.4,0-0.6,0.1c0,0,0,0,0.1,0.1
	C89.4,58,89.8,58.3,89.8,58.3"/>
<path class="st1" d="M90.6,44C90.6,44,90.6,44,90.6,44c0,0.1,0,0.1-0.1,0.1c-0.1,0-0.3-0.1-0.4-0.1c-0.2-0.1-0.4,0-0.6-0.1
	c-0.1,0-0.3,0-0.3-0.1l-0.4,0c0,0-0.1,0.3-0.2,0.6c-0.1,0.2-0.1,0.3-0.1,0.3c0,0,0,0,0,0c0.6,0,1.3,0.1,1.9,0.2L90.6,44z"/>
<path class="st1" d="M96.6,42.5c-0.1,0.1-0.2,0.2-0.3,0.3c0,0-0.1,0-0.1,0.1c-0.1,0.1-0.2,0.2-0.3,0.3c-0.1,0-0.2,0.1-0.2,0.2
	c-0.1,0-0.1,0.1-0.1,0.1c0,0-0.1,0-0.1,0l-2.4,2.4l0.7,0.7l3-3c0-0.1,0-0.2,0.1-0.2c0.2-0.2,0.3-0.3,0.4-0.4c0,0,0,0,0,0
	c0,0,0.1,0,0.1,0l0.6-0.6l-0.8-0.6L96.6,42.5C96.6,42.5,96.6,42.5,96.6,42.5"/>
<path class="st1" d="M124.9,77.4c-2.1,1.7-5.1,4.9-6.6,5.9c0.3,0.2,0.5,0.5,0.8,0.7c2.5-0.7,5.3-1.3,7.1-2.3c3.3-2,7.7-6.7,8.6-14.1
	C132.3,72.4,127.1,75.7,124.9,77.4"/>
<path class="st1" d="M123.1,75.2c0.1-3.1,0.8-6,0.6-10.5c-1,2.5-4.3,8-4.9,9.8c-1.3,3.7-1,5.8-1.5,8c0.3,0.3,0.7,0.6,1,0.8
	C121.3,80.3,122.8,77.1,123.1,75.2"/>
<path class="st0" d="M57.6,59.6C57.6,59.6,57.6,59.6,57.6,59.6c0-0.1,0-0.2-0.1-0.3c0,0,0,0-0.1,0.1C57.5,59.5,57.5,59.5,57.6,59.6"
	/>
<path class="st0" d="M75.5,68.1C75.5,68.1,75.5,68.1,75.5,68.1c0,0,0,0.1,0.1,0.1L75.5,68.1z"/>
<path class="st2" d="M120.1,89.8c-1.1-1.1-2.2-2.2-3.3-3.2c-0.8-0.8-1.7-1.5-2.6-2.2c-1.1-0.9-2.3-1.7-3.4-2.5
	c-0.8-0.5-1.6-1-2.4-1.5c-0.3-0.2-0.7-0.4-1-0.6c-2-1.1-4-2.1-6.1-3c-0.1,0-0.2-0.1-0.4-0.1c-0.5-0.2-0.9-0.4-1.4-0.5
	c-2-0.8-4-1.4-5.9-2c-1.5-0.4-3-0.8-4.5-1.1c-0.4-0.1-0.7-0.1-1.1-0.2c-5.4-1.1-10.4-1.4-14.2-1.4c-1.2,0-2.3,0-3.4,0.1
	c-0.5,0-1,0.1-1.4,0.1c-0.2,0-0.5,0.1-0.7,0.1c-0.5,0.1-1.1,0.1-1.6,0.2c-1.6,0.2-3.2,0.5-4.7,0.9c-0.4,0.1-0.8,0.2-1.2,0.3
	c-10.8,2.5-19.7,6.5-31.4,1.6c5.2,6.9,19.2,8.5,26.7,8.5c4.8,0,9.3-0.9,13.5-2.2c0.5-0.1,0.9-0.3,1.4-0.4c2.8-0.9,5.5-1.9,7.9-2.7
	c0.6-0.2,1.1-0.4,1.6-0.6c2-0.7,3.8-1.2,5.5-1.6c0.1,0,0.3-0.1,0.4-0.1c0.5-0.1,1.1-0.2,1.6-0.2c0.4,0,0.7,0,1.1,0
	c0.1,0,0.2,0,0.4,0c1.5,0,2.9,0.2,4.5,0.5c1.3,0.2,2.6,0.6,4,1.1c0.5,0.2,1,0.4,1.5,0.6c0.2,0.1,0.5,0.2,0.7,0.3
	c1.9,0.8,3.8,1.9,5.7,3.1c0.3,0.2,0.6,0.4,1,0.7c1,0.7,1.9,1.4,2.9,2.2c1,0.8,1.9,1.7,2.9,2.6c0.3,0.3,0.7,0.7,1,1
	c1,1.1,2.1,2.3,3.1,3.5c0.5,0.6,0.9,1.2,1.4,1.8l3.7-1.2C121.1,91,120.6,90.4,120.1,89.8"/>
<path class="st2" d="M57.4,65.6c-1.1-1.4-2-2.9-2.9-4.6c-1.6-3.1-3.2-6.4-5.5-8.9c-2.6-2.9-9.5-10.8-13.5-14.7
	c2.3,8.8,3.6,13.3,6.4,19.1c2,4.4,6.3,8.5,14.5,11.7c-3.5-0.6-8.1-2.6-13.7-4c-5.6-1.4-20.3-3.9-28.8-10.5
	C22.4,69.1,36.7,72,42.4,72.4c4.3,0.3,11.6-1.2,16.2-2.2c0.4-0.1,0.8-0.2,1.1-0.2c1-0.2,1.8-0.4,2.4-0.5
	C60.2,68.7,58.7,67.3,57.4,65.6"/>
</svg>
